<?xml version="1.0" encoding="utf-8"?>
<!-- Generator: Adobe Adobe Illustrator 24.2.0, SVG Export Plug-In . SVG Version: 6.00 Build 0)  -->
<svg version="1.1" id="Layer_1" xmlns="http://www.w3.org/2000/svg" xmlns:xlink="http://www.w3.org/1999/xlink" x="0px" y="0px"
	 width="612px" height="222.58px" viewBox="0 0 612 221" style="enable-background:new 0 0 612 221;" xml:space="preserve">
<style type="text/css">
	.st0{fill:#F2F0EA;}
	.st1{fill:#010101;}
</style>
<g>
	<g>
		<path class="st0" d="M0,222.33C0,148.22,0,74.12,0,0c203.85,0,407.71,0,611.67,0c0,74,0,148.01-0.15,222.18
			C407.58,222.33,203.79,222.33,0,222.33z M504.65,124.83c0-3.94,0-7.89,0-11.83c0-3.06-0.02-6.11,0.03-9.17
			c0.01-0.47,0.39-0.94,0.59-1.41c0.43,0.34,1.02,0.6,1.26,1.04c0.61,1.12,1.05,2.32,1.57,3.48c1.96,4.38,3.94,8.76,5.89,13.15
			c1.52,3.42,2.98,6.87,4.51,10.29c2.04,4.57,4.14,9.12,6.16,13.69c3.14,7.1,6.21,14.22,9.36,21.32c1.65,3.73,3.39,7.42,5.04,11.02
			c9.24,0,18.32,0,27.34,0c0-43.56,0-87.05,0-130.54c-7.99,0-15.96,0-23.84,0c0,0.83,0,1.6,0,2.38c0,23.06,0,46.11,0,69.17
			c0,0.5,0.03,1.04-0.16,1.47c-0.15,0.33-0.61,0.65-0.97,0.7c-0.25,0.03-0.69-0.34-0.84-0.63c-0.69-1.39-1.33-2.8-1.95-4.22
			c-3.08-7.03-6.11-14.08-9.23-21.1c-3.15-7.1-6.41-14.16-9.56-21.26c-3.93-8.83-7.79-17.7-11.67-26.51c-9.16,0-18.26,0-27.35,0
			c0,43.55,0,87.07,0,130.53c8.02,0,15.99,0,23.83,0C504.65,159.27,504.65,142.21,504.65,124.83z M447.6,98.2
			c-0.73-2.66-1.5-5.3-2.19-7.97c-2.11-8.22-4.19-16.45-6.28-24.68c-0.7-2.77-1.41-5.54-2.1-8.31c-0.94-3.81-1.86-7.62-2.77-11.34
			c-8.36,0-16.51,0-24.62,0c-11.74,43.6-23.46,87.13-35.14,130.54c7.98,0,16.07,0,24.15,0c0.4-1.75,0.72-3.42,1.17-5.06
			c1.42-5.16,2.96-10.29,4.3-15.47c0.39-1.5,1.05-1.92,2.51-1.9c5.06,0.08,10.11,0.03,15.17,0.04c4.67,0,9.34,0.02,14-0.01
			c1.13-0.01,1.97,0.27,2.26,1.47c0.79,3.26,1.55,6.53,2.37,9.78c0.95,3.77,1.94,7.52,2.88,11.17c8.18,0,16.13,0,24.04,0
			c-1.3-5.15-2.63-10.38-3.94-15.61c-1.84-7.33-3.62-14.68-5.49-22c-1.33-5.18-2.81-10.32-4.15-15.49
			c-1.57-6.09-3.06-12.19-4.56-18.3C448.67,102.85,448.2,100.65,447.6,98.2z M206.75,32.83c-0.04,0.26-0.18,0.55-0.12,0.79
			c0.76,2.87,1.59,5.72,2.31,8.6c0.22,0.88,0.49,1.94,0.19,2.71c-0.81,2.07-1.88,4.05-2.94,6.01c-0.27,0.51-0.93,1.17-1.36,1.13
			c-0.48-0.04-1.05-0.71-1.34-1.23c-0.87-1.58-1.68-3.2-2.38-4.85c-0.34-0.8-0.69-1.82-0.48-2.58c0.85-3.12,1.96-6.17,2.84-9.29
			c0.12-0.44-0.55-1.1-0.85-1.65c-0.46,0.33-1.17,0.57-1.33,1.01c-0.63,1.76-1.06,3.6-1.65,5.38c-0.13,0.4-0.6,0.9-0.95,0.94
			c-0.32,0.03-0.84-0.42-1.04-0.79c-0.87-1.6-1.6-3.28-2.51-4.86c-0.25-0.44-1.1-0.99-1.41-0.86c-0.86,0.36-1.1,1.17-0.6,2.08
			c1.27,2.31,2.63,4.58,3.73,6.97c0.5,1.09,0.8,2.48,0.6,3.63c-0.36,1.99-1.16,3.91-1.81,5.84c-0.48,1.43-1.08,1.61-2.07,0.47
			c-1.15-1.32-2.02-2.9-3.23-4.15c-1.54-1.59-1.7-3.35-1.38-5.36c0.36-2.33,0.69-4.68,0.88-7.03c0.04-0.51-0.53-1.07-0.83-1.6
			c-0.43,0.47-1.14,0.89-1.24,1.41c-0.26,1.51-0.22,3.07-0.42,4.6c-0.08,0.58-0.49,1.12-0.75,1.68c-0.59-0.31-1.34-0.49-1.74-0.95
			c-1.01-1.17-1.77-2.55-2.81-3.67c-0.42-0.45-1.5-0.78-1.98-0.55c-0.91,0.44-0.29,1.16,0.15,1.76c1.78,2.39,3.55,4.78,5.27,7.21
			c0.4,0.56,0.85,1.32,0.79,1.94c-0.22,2.41-0.56,4.81-1,7.19c-0.23,1.23-0.91,1.35-1.86,0.47c-1.61-1.5-3.29-2.93-4.78-4.54
			c-0.61-0.66-1.04-1.68-1.11-2.58c-0.22-2.86-0.16-5.74-0.36-8.61c-0.04-0.59-0.76-1.13-1.17-1.7c-0.34,0.61-0.97,1.21-0.97,1.82
			c-0.02,1.81,0.25,3.63,0.31,5.45c0.01,0.42-0.29,1.16-0.56,1.22c-0.42,0.09-1.05-0.16-1.4-0.47c-1.41-1.24-2.72-2.6-4.16-3.8
			c-0.33-0.27-1.06-0.05-1.61-0.06c0.02,0.51-0.18,1.23,0.08,1.49c1.99,1.99,4.09,3.87,6.1,5.85c0.7,0.69,1.62,1.49,1.74,2.34
			c0.35,2.51,0.4,5.06,0.48,7.6c0.03,0.9-0.48,1.39-1.4,0.83c-1.54-0.94-3.13-1.83-4.57-2.91c-1.06-0.8-2.2-1.72-2.8-2.85
			c-0.64-1.21-0.69-2.73-1.01-4.12c-0.4-1.72-0.77-3.44-1.26-5.14c-0.1-0.36-0.76-0.91-0.95-0.84c-0.43,0.16-0.87,0.61-1.05,1.05
			c-0.15,0.35,0.04,0.86,0.13,1.29c0.29,1.35,0.65,2.68,0.87,4.04c0.09,0.58-0.13,1.2-0.2,1.81c-0.66-0.18-1.39-0.22-1.96-0.56
			c-1.23-0.72-2.31-1.72-3.59-2.34c-0.59-0.29-1.49,0.06-2.25,0.12c0.31,0.58,0.47,1.35,0.95,1.7c1.55,1.15,3.27,2.07,4.83,3.21
			c1.48,1.09,3.55,1.6,4.12,3.65c0.57,2.07,1,4.17,1.44,6.28c0.27,1.3-0.35,1.88-1.68,1.46c-1.47-0.47-2.82-1.31-4.31-1.71
			c-2.59-0.69-3.66-2.5-4.42-4.86c-0.69-2.13-1.66-4.18-2.68-6.18c-0.21-0.41-1.18-0.42-1.8-0.62c-0.09,0.52-0.38,1.12-0.22,1.54
			c0.6,1.59,1.38,3.11,2.01,4.7c0.2,0.51,0.12,1.12,0.18,1.69c-0.62-0.01-1.3,0.14-1.84-0.07c-1.59-0.6-3.16-1.28-4.69-2.03
			c-0.96-0.47-1.61-0.07-1.85,0.69c-0.1,0.33,0.53,1.15,1,1.36c2.55,1.14,5.19,2.08,7.72,3.26c0.93,0.43,1.91,1.2,2.39,2.08
			c1.02,1.88,1.77,3.91,2.56,5.91c0.18,0.45,0.22,1.13-0.01,1.5c-0.17,0.28-0.9,0.41-1.32,0.33c-2.06-0.41-4.1-0.87-6.13-1.42
			c-0.66-0.18-1.44-0.51-1.83-1.03c-1.13-1.49-2.09-3.11-3.1-4.69c-0.78-1.21-1.45-2.51-2.36-3.6c-0.29-0.35-1.21-0.17-1.84-0.24
			c-0.02,0.48-0.22,1.07-0.02,1.42c0.89,1.57,1.93,3.05,2.85,4.61c0.27,0.47,0.31,1.07,0.46,1.61c-0.56,0.04-1.13,0.18-1.67,0.09
			c-1.79-0.3-3.56-0.76-5.35-0.99c-0.44-0.06-0.97,0.53-1.46,0.82c0.39,0.46,0.71,1.21,1.19,1.32c3.12,0.77,6.28,1.38,9.42,2.1
			c0.48,0.11,1.02,0.45,1.29,0.85c1.25,1.87,2.44,3.78,3.59,5.71c0.28,0.47,0.58,1.23,0.38,1.58c-0.21,0.39-1,0.64-1.54,0.63
			c-2.26-0.05-4.53-0.16-6.78-0.4c-0.56-0.06-1.16-0.58-1.59-1.03c-2-2.15-3.91-4.37-5.91-6.51c-0.63-0.68-1.38-1.42-2.37-0.37
			c-0.98,1.04,0.1,1.44,0.6,1.99c1.01,1.11,2.1,2.14,3.07,3.28c0.31,0.37,0.64,1.2,0.47,1.4c-0.32,0.38-1,0.62-1.54,0.64
			c-1.55,0.06-3.11,0-4.67-0.03c-0.71-0.02-1.69-0.25-1.55,0.84c0.07,0.53,0.91,1.3,1.45,1.35c2.7,0.22,5.41,0.33,8.11,0.29
			c1.62-0.03,2.71,0.54,3.69,1.79c1.12,1.44,2.44,2.72,3.62,4.11c0.36,0.42,0.55,0.99,0.81,1.49c-0.58,0.28-1.13,0.71-1.73,0.8
			c-1.9,0.29-3.82,0.57-5.74,0.63c-0.91,0.03-2-0.21-2.73-0.73c-2.79-1.95-5.47-4.07-8.23-6.16c-0.54,0.57-0.98,1.04-1.53,1.62
			c0.67,0.59,1.21,1.13,1.81,1.59c1.14,0.87,2.36,1.65,3.48,2.54c1.1,0.87,0.98,1.5-0.33,1.95c-0.41,0.14-0.86,0.19-1.3,0.23
			c-1.32,0.11-2.66,0.09-3.94,0.35c-0.57,0.11-1.02,0.78-1.52,1.2c0.51,0.34,1.02,0.94,1.54,0.96c1.2,0.04,2.41-0.21,3.61-0.34
			c2.02-0.22,4.04-0.47,6.07-0.61c0.51-0.04,1.14,0.15,1.56,0.46c2.04,1.52,4.03,3.1,6,4.7c0.25,0.2,0.47,0.69,0.39,0.95
			c-0.08,0.28-0.51,0.53-0.84,0.63c-1.3,0.41-2.66,0.65-3.94,1.13c-2.5,0.95-4.82,1.21-7.23-0.44c-1.9-1.3-4.05-2.25-6.16-3.2
			c-0.46-0.2-1.22,0.29-1.85,0.46c0.24,0.45,0.37,1.11,0.75,1.32c1.56,0.88,3.22,1.59,4.8,2.44c0.44,0.24,0.99,0.71,1.03,1.11
			c0.03,0.32-0.58,0.9-1.01,1.04c-1.61,0.54-3.29,0.86-4.87,1.46c-0.62,0.24-1.03,1-1.54,1.53c0.59,0.25,1.24,0.8,1.74,0.69
			c1.98-0.44,3.9-1.16,5.87-1.64c1.73-0.42,3.39-1.58,5.28-0.68c1.95,0.94,3.9,1.9,5.81,2.92c0.43,0.23,0.98,0.76,0.98,1.15
			c0,0.39-0.54,0.91-0.97,1.15c-1.69,0.95-3.38,1.92-5.16,2.68c-0.86,0.37-2,0.62-2.87,0.39c-2.98-0.78-5.88-1.85-8.84-2.67
			c-0.49-0.14-1.42,0.22-1.69,0.64c-0.43,0.69-0.09,1.33,0.85,1.57c1.81,0.45,3.61,0.96,5.39,1.51c0.46,0.14,0.84,0.55,1.26,0.83
			c-0.37,0.41-0.66,0.95-1.11,1.2c-1.69,0.93-3.46,1.71-5.14,2.66c-0.34,0.19-0.7,1.09-0.56,1.26c0.32,0.38,0.92,0.61,1.44,0.7
			c0.32,0.06,0.73-0.21,1.07-0.39c2.62-1.35,5.22-2.71,7.84-4.05c0.38-0.19,0.88-0.46,1.23-0.36c2.54,0.74,5.07,1.51,7.57,2.38
			c1.07,0.37,1.22,1,0.15,1.76c-1.4,0.98-2.77,2.02-4.05,3.15c-1.77,1.57-3.63,1.95-5.97,1.42c-2.35-0.54-4.81-0.6-7.23-0.77
			c-0.38-0.03-0.8,0.49-1.21,0.75c0.34,0.4,0.61,1.07,1.02,1.16c1.5,0.31,3.06,0.35,4.57,0.63c0.76,0.14,1.46,0.57,2.19,0.87
			c-0.41,0.61-0.78,1.27-1.26,1.81c-0.32,0.36-0.84,0.54-1.23,0.84c-1.16,0.9-2.3,1.83-3.41,2.71c0.73,1.48,1.57,1.48,2.62,0.69
			c1.94-1.46,3.88-2.92,5.88-4.3c0.94-0.65,2.02-1.57,3.01-1.54c2.51,0.06,5.02,0.56,7.52,0.95c1.21,0.19,1.1,0.86,0.4,1.61
			c-1.67,1.78-3.31,3.58-5.02,5.32c-0.39,0.4-1.01,0.77-1.55,0.81c-2.76,0.19-5.52,0.25-8.28,0.37c-0.8,0.04-1.6,0.15-2.34,0.22
			c-0.35,1.58,0.08,2.19,1.59,1.98c1.64-0.22,3.3-0.34,4.95-0.37c0.52-0.01,1.05,0.4,1.57,0.62c-0.25,0.51-0.39,1.11-0.75,1.51
			c-1.17,1.31-2.4,2.58-3.65,3.82c-0.69,0.68-0.56,1.37,0.09,1.81c0.37,0.25,1.3,0.29,1.56,0.02c1.8-1.86,3.46-3.85,5.22-5.74
			c0.78-0.84,1.61-2.05,2.57-2.22c2.49-0.43,5.06-0.46,7.6-0.49c1.2-0.01,1.64,1.14,0.96,2.16c-0.89,1.31-1.68,2.71-2.72,3.89
			c-0.9,1.02-1.24,2.63-2.98,2.86c-1.51,0.2-3,0.56-4.5,0.88c-1.55,0.34-3.13,0.63-4.62,1.15c-0.45,0.16-0.64,1.05-0.95,1.6
			c0.6,0.19,1.23,0.62,1.78,0.53c1.41-0.22,2.76-0.76,4.17-1c0.81-0.14,1.67,0.06,2.51,0.1c-0.39,0.8-0.72,1.63-1.17,2.39
			c-0.71,1.23-1.58,2.37-2.19,3.65c-0.19,0.41,0.25,1.12,0.4,1.7c0.54-0.19,1.29-0.21,1.57-0.59c1.08-1.47,1.98-3.07,3-4.58
			c0.95-1.41,1.68-3.36,3.02-4.01c2.33-1.13,5.04-1.57,7.63-2.05c1.18-0.22,1.64,0.88,1.09,2.06c-0.67,1.44-1.17,2.96-1.94,4.34
			c-0.66,1.19-0.84,2.71-2.53,3.28c-2.86,0.98-5.65,2.17-8.41,3.39c-0.41,0.18-0.53,1-0.79,1.53c0.6,0.21,1.33,0.75,1.79,0.58
			c1.7-0.62,3.29-1.51,4.97-2.2c0.42-0.18,1.2-0.18,1.44,0.08c0.25,0.27,0.17,1.02-0.01,1.45c-0.68,1.62-1.45,3.2-2.21,4.78
			c-0.46,0.96-0.1,1.74,0.75,2.02c0.35,0.12,1.22-0.49,1.44-0.97c1.2-2.6,2.22-5.28,3.43-7.87c0.4-0.86,1.02-1.82,1.81-2.27
			c1.71-0.98,3.57-1.72,5.41-2.45c0.6-0.24,1.69-0.43,1.93-0.14c0.4,0.49,0.48,1.42,0.37,2.11c-0.32,1.89-0.77,3.75-1.26,5.61
			c-0.14,0.55-0.45,1.2-0.88,1.5c-1.49,1.03-3.09,1.91-4.62,2.88c-1.26,0.8-2.51,1.61-3.7,2.51c-0.59,0.45-1.21,1-0.54,1.93
			c0.6,0.82,1.09,0.63,1.79,0.12c1.38-1.01,2.8-1.95,4.26-2.85c0.47-0.29,1.07-0.36,1.61-0.53c0.09,0.6,0.33,1.23,0.23,1.81
			c-0.31,1.79-0.82,3.55-1.1,5.34c-0.06,0.41,0.41,1,0.8,1.31c0.13,0.1,0.98-0.31,1.09-0.63c0.34-0.96,0.46-1.99,0.7-2.98
			c0.58-2.39,1.15-4.79,1.79-7.16c0.12-0.43,0.52-0.85,0.91-1.11c1.83-1.22,3.68-2.42,5.56-3.56c0.46-0.28,1.16-0.51,1.6-0.36
			c0.33,0.12,0.6,0.9,0.59,1.38c-0.06,2.32-0.19,4.64-0.39,6.95c-0.04,0.49-0.41,1.04-0.78,1.39c-2.36,2.26-4.78,4.46-7.11,6.75
			c-0.29,0.28-0.1,1.04-0.14,1.57c0.51,0.03,1.21,0.3,1.49,0.06c1.44-1.19,2.75-2.54,4.16-3.77c0.45-0.39,1.07-0.6,1.61-0.89
			c0.16,0.61,0.47,1.23,0.45,1.83c-0.06,1.82-0.28,3.63-0.34,5.45c-0.01,0.36,0.46,1.06,0.68,1.05c0.45-0.03,1.03-0.33,1.26-0.71
			c0.26-0.43,0.24-1.06,0.27-1.61c0.12-2.76,0.17-5.52,0.36-8.28c0.04-0.59,0.44-1.25,0.88-1.68c1.65-1.64,3.37-3.21,5.08-4.78
			c0.96-0.89,1.98-0.58,2.15,0.71c0.29,2.24,0.56,4.48,0.66,6.73c0.03,0.73-0.36,1.59-0.8,2.22c-1.73,2.42-3.54,4.8-5.38,7.14
			c-0.64,0.81-0.7,1.57,0.12,2.07c0.32,0.19,1.25-0.14,1.57-0.51c1.22-1.42,2.27-2.99,3.46-4.44c0.3-0.37,0.91-0.48,1.38-0.71
			c0.24,0.51,0.63,0.99,0.71,1.53c0.24,1.8,0.31,3.62,0.6,5.41c0.06,0.38,0.76,0.67,1.17,1c0.26-0.41,0.76-0.83,0.74-1.22
			c-0.11-1.92-0.39-3.83-0.55-5.75c-0.18-2.13-1.29-4.31,0.45-6.35c1.25-1.47,2.31-3.1,3.55-4.58c0.34-0.4,1.02-0.77,1.51-0.72
			c0.38,0.04,0.86,0.67,1.02,1.14c0.6,1.7,1.05,3.46,1.61,5.17c0.4,1.22,0.35,2.29-0.31,3.47c-1.37,2.47-2.52,5.06-3.86,7.55
			c-0.52,0.97-0.56,1.82,0.47,2.15c0.4,0.13,1.31-0.59,1.64-1.14c0.8-1.32,1.34-2.78,2.09-4.14c0.23-0.42,0.81-0.93,1.19-0.89
			c0.41,0.03,0.95,0.59,1.11,1.03c0.46,1.29,0.67,2.68,1.16,3.95c0.31,0.81,0.94,1.5,1.43,2.24c0.2-0.06,0.41-0.13,0.61-0.19
			c0.2-0.52,0.67-1.12,0.55-1.55c-0.72-2.52-1.58-5.01-2.4-7.5c-0.5-1.54-0.95-2.99,0.06-4.6c1.02-1.63,1.72-3.47,2.62-5.18
			c0.21-0.39,0.73-0.92,1.04-0.88c0.44,0.06,0.96,0.5,1.19,0.92c0.98,1.81,2.03,3.6,2.71,5.53c0.4,1.15,0.41,2.58,0.13,3.78
			c-0.59,2.51-1.55,4.93-2.19,7.44c-0.15,0.57,0.37,1.32,0.58,1.99c0.52-0.48,1.28-0.85,1.52-1.45c0.61-1.47,0.92-3.06,1.48-4.55
			c0.17-0.46,0.76-1.05,1.16-1.05c0.39,0,0.91,0.6,1.16,1.06c0.77,1.39,1.39,2.86,2.16,4.25c0.31,0.57,0.63,1.44,1.61,0.76
			c0.82-0.57,0.71-1.16,0.26-1.98c-1.44-2.66-2.81-5.36-4.11-8.1c-0.28-0.59-0.32-1.43-0.15-2.07c0.55-2.12,1.22-4.21,1.92-6.28
			c0.16-0.46,0.57-1.07,0.95-1.14c0.37-0.07,0.96,0.39,1.26,0.77c1.16,1.46,2.13,3.07,3.37,4.44c1.05,1.16,1.27,2.39,1.09,3.83
			c-0.34,2.73-0.7,5.46-0.92,8.19c-0.04,0.52,0.5,1.09,0.78,1.64c0.48-0.55,1.23-1.04,1.37-1.67c0.37-1.6,0.43-3.26,0.7-4.89
			c0.08-0.47,0.46-0.89,0.71-1.34c0.38,0.26,0.86,0.44,1.13,0.78c1.17,1.47,2.23,3.02,3.44,4.45c0.28,0.33,0.98,0.31,1.49,0.45
			c0.15-0.62,0.64-1.47,0.4-1.83c-1.37-2-2.92-3.88-4.38-5.82c-0.75-1-2.02-2.04-2.03-3.07c-0.03-2.56,0.45-5.14,0.87-7.68
			c0.2-1.22,0.99-1.35,1.91-0.48c1.61,1.52,3.3,2.97,4.81,4.58c0.58,0.62,1.01,1.58,1.08,2.42c0.21,2.81,0.22,5.63,0.33,8.44
			c0.01,0.32,0.05,0.76,0.25,0.93c0.38,0.32,0.88,0.63,1.34,0.64c0.22,0,0.64-0.7,0.64-1.08c-0.03-1.99-0.2-3.97-0.25-5.96
			c-0.01-0.43,0.28-0.87,0.43-1.3c0.38,0.15,0.85,0.21,1.14,0.47c1.44,1.29,2.8,2.68,4.28,3.93c0.38,0.32,1.3,0.56,1.57,0.34
			c0.66-0.53,0.98-1.3,0.08-2.09c-2.37-2.07-4.74-4.16-7.02-6.33c-0.5-0.47-0.83-1.3-0.89-2c-0.2-2.25-0.28-4.52-0.32-6.78
			c-0.01-0.43,0.22-1,0.54-1.26c0.2-0.16,0.84,0.02,1.16,0.23c1.2,0.79,2.24,1.94,3.54,2.43c2.85,1.08,3.79,3.25,4.22,5.97
			c0.33,2.12,0.81,4.22,1.37,6.28c0.13,0.49,0.85,0.82,1.3,1.23c0.3-0.48,0.9-0.99,0.85-1.42c-0.22-1.79-0.67-3.56-0.97-5.34
			c-0.09-0.54,0.03-1.12,0.05-1.68c0.5,0.09,1.06,0.06,1.47,0.3c1.62,0.94,3.15,2.01,4.79,2.9c0.37,0.2,1.03-0.14,1.55-0.24
			c-0.15-0.55-0.12-1.35-0.48-1.61c-1.84-1.32-3.82-2.44-5.68-3.73c-1.16-0.8-2.7-1.55-3.2-2.7c-0.94-2.17-1.27-4.6-1.78-6.93
			c-0.09-0.42,0.05-1.12,0.34-1.32c0.37-0.25,1.07-0.31,1.51-0.14c1.59,0.61,3.15,1.29,4.67,2.04c1.12,0.56,2.41,0.7,2.96,2.3
			c0.98,2.86,2.29,5.6,3.56,8.35c0.23,0.5,1.2,1.2,1.44,1.08c0.83-0.45,1.12-1.25,0.59-2.25c-0.74-1.41-1.41-2.85-2-4.32
			c-0.2-0.5-0.08-1.14-0.1-1.71c0.56,0.01,1.18-0.13,1.67,0.06c1.63,0.64,3.21,1.41,4.82,2.1c1.13,0.49,1.8,0.03,1.52-1.14
			c-0.13-0.52-0.72-1.07-1.24-1.31c-1.84-0.86-3.75-1.58-5.62-2.39c-1.2-0.52-2.89-0.79-3.45-1.72c-1.34-2.19-2.16-4.69-3.14-7.09
			c-0.45-1.11,0.19-1.56,1.22-1.55c0.54,0.01,1.09,0.15,1.62,0.28c1.44,0.35,2.9,0.64,4.29,1.14c0.94,0.34,2.04,0.8,2.6,1.55
			c1.67,2.27,3.15,4.68,4.63,7.09c1.16,1.88,1.18,1.92,2.88,0.34c-0.83-1.39-1.72-2.78-2.5-4.22c-0.46-0.85-0.74-1.8-1.11-2.7
			c0.99,0.01,1.98-0.02,2.96,0.05c0.54,0.04,1.06,0.31,1.6,0.41c1.05,0.2,2.11,0.34,3.25,0.53c0-0.87,0-1.46,0-2.12
			c-3.1-0.65-6.18-1.21-9.21-2c-0.95-0.25-1.94-0.94-2.55-1.72c-1.28-1.65-2.33-3.48-3.43-5.26c-0.27-0.44-0.63-1.23-0.45-1.43
			c0.32-0.37,1.02-0.61,1.55-0.59c2.32,0.06,4.64,0.19,6.95,0.37c0.45,0.04,0.96,0.33,1.28,0.66c2.22,2.32,4.46,4.64,6.56,7.06
			c0.59,0.68,1.07,1.02,1.72,0.42c0.62-0.58,1.04-1.3,0.14-2.12c-1.23-1.12-2.43-2.29-3.56-3.51c-0.4-0.43-0.56-1.08-0.83-1.63
			c0.59-0.21,1.18-0.6,1.77-0.58c1.71,0.05,3.41,0.34,5.12,0.34c0.44,0,0.89-0.71,1.33-1.09c-0.44-0.38-0.87-1.06-1.34-1.09
			c-2.76-0.18-5.54-0.08-8.28-0.37c-1.15-0.12-2.41-0.74-3.31-1.5c-1.5-1.29-2.75-2.87-4.11-4.33c-0.92-0.99-0.73-1.93,0.61-2.14
			c2.39-0.38,4.81-0.61,7.23-0.78c0.52-0.04,1.14,0.34,1.61,0.67c2.42,1.74,4.78,3.57,7.22,5.29c1.29,0.91,1.79,0.68,2.38-1
			c-1.63-1.22-3.33-2.45-4.95-3.77c-0.39-0.32-0.72-1-0.67-1.47c0.03-0.3,0.79-0.68,1.26-0.75c1.74-0.26,3.51-0.34,5.24-0.63
			c0.42-0.07,0.75-0.68,1.11-1.04c-0.43-0.29-0.88-0.87-1.28-0.83c-2.8,0.22-5.58,0.61-8.38,0.86c-0.91,0.08-2.04,0.22-2.72-0.21
			c-2-1.26-3.84-2.77-5.71-4.23c-1.21-0.95-1.18-1.53,0.25-2.07c2.32-0.88,4.69-1.6,7.06-2.33c0.32-0.1,0.78,0.01,1.09,0.17
			c2.91,1.49,5.79,3.05,8.74,4.46c0.43,0.21,1.19-0.26,1.8-0.41c-0.26-0.5-0.39-1.2-0.8-1.46c-1.49-0.96-3.08-1.74-4.6-2.66
			c-0.42-0.25-0.69-0.74-1.03-1.12c0.45-0.35,0.85-0.87,1.36-1.03c1.57-0.51,3.22-0.79,4.76-1.37c0.48-0.18,0.7-1.02,1.04-1.55
			c-0.66-0.21-1.41-0.74-1.98-0.59c-2.92,0.79-5.78,1.78-8.68,2.64c-0.49,0.15-1.14,0.19-1.59-0.01c-2.22-1-4.42-2.07-6.58-3.19
			c-0.43-0.22-0.86-0.76-0.93-1.21c-0.04-0.27,0.56-0.74,0.97-0.95c1.86-0.98,3.68-2.13,5.65-2.77c1.26-0.41,2.82-0.27,4.15,0.04
			c2.55,0.6,5.03,1.54,7.57,2.2c0.41,0.11,1-0.49,1.5-0.76c-0.46-0.5-0.84-1.24-1.41-1.45c-1.43-0.55-2.98-0.79-4.42-1.3
			c-0.47-0.17-0.88-0.77-1.09-1.27c-0.08-0.2,0.36-0.79,0.69-0.97c1.31-0.72,2.65-1.39,4.01-1.99c0.81-0.36,1.89-0.55,1.41-1.75
			c-0.48-1.21-1.47-0.89-2.36-0.43c-2.55,1.31-5.07,2.66-7.64,3.92c-0.61,0.3-1.42,0.55-2.03,0.39c-2.29-0.61-4.56-1.34-6.8-2.13
			c-1.07-0.38-1.42-1.06-0.28-1.91c1.55-1.15,2.98-2.5,4.64-3.47c1.11-0.65,2.54-1.12,3.81-1.08c2.74,0.09,5.46,0.58,8.2,0.88
			c0.71,0.08,1.58,0.25,1.58-0.87c0-1.01-0.61-1.35-1.63-1.4c-1.53-0.07-3.07-0.28-4.58-0.57c-0.51-0.09-0.94-0.59-1.4-0.9
			c0.35-0.46,0.62-1.01,1.06-1.37c1.24-1.01,2.62-1.87,3.77-2.96c0.37-0.35,0.19-1.27,0.26-1.93c-0.59,0.04-1.33-0.13-1.74,0.17
			c-2.42,1.74-4.75,3.61-7.14,5.39c-0.51,0.38-1.18,0.83-1.76,0.81c-2.31-0.1-4.62-0.32-6.91-0.61c-1.6-0.2-1.97-1.22-0.89-2.39
			c1.56-1.7,3.14-3.39,4.8-5c0.42-0.41,1.15-0.68,1.76-0.71c2.98-0.16,5.97-0.15,8.95-0.36c0.52-0.04,0.99-0.86,1.49-1.32
			c-0.48-0.29-0.95-0.8-1.45-0.83c-1.66-0.08-3.33,0.05-5,0c-0.49-0.02-1.19-0.26-1.37-0.62c-0.15-0.31,0.19-1.01,0.5-1.38
			c1.04-1.22,2.23-2.32,3.22-3.57c0.36-0.46,0.33-1.22,0.48-1.85c-0.67,0.07-1.59-0.11-1.98,0.26c-1.83,1.75-3.49,3.68-5.27,5.49
			c-0.82,0.83-1.68,2.04-2.67,2.21c-2.43,0.42-4.95,0.4-7.44,0.44c-1.37,0.02-1.67-0.66-0.93-1.8c1.25-1.9,2.46-3.82,3.82-5.64
			c0.45-0.6,1.24-1.11,1.97-1.32c2.27-0.65,4.58-1.13,6.87-1.69c0.8-0.2,1.67-0.31,2.36-0.71c0.41-0.24,0.56-0.94,0.83-1.44
			c-0.41-0.15-0.84-0.48-1.22-0.42c-1.9,0.3-3.78,0.72-5.67,1.04c-0.39,0.07-1.05,0.04-1.17-0.18c-0.19-0.35-0.21-0.99-0.01-1.34
			c1.07-1.8,2.23-3.55,3.49-5.52c-0.36-0.31-0.8-1.02-1.28-1.04c-0.46-0.02-1.06,0.59-1.4,1.07c-1.33,1.9-2.74,3.79-3.83,5.83
			c-1.07,2-2.6,2.99-4.77,3.32c-1.52,0.23-3.01,0.65-4.53,0.95c-1.47,0.3-1.98-0.27-1.41-1.71c0.69-1.73,1.64-3.37,2.25-5.12
			c0.59-1.7,1.79-2.53,3.35-3.12c2.3-0.86,4.56-1.83,6.86-2.7c1.03-0.38,1.23-1.15,0.94-1.99c-0.36-1.03-1.1-0.55-1.78-0.24
			c-1.25,0.57-2.5,1.17-3.8,1.6c-0.65,0.21-1.42,0.08-2.13,0.11c0.02-0.67-0.12-1.39,0.09-1.99c0.47-1.39,1.19-2.7,1.65-4.09
			c0.15-0.46,0-1.45-0.28-1.56c-0.82-0.33-1.6-0.09-1.96,0.94c-0.46,1.35-0.93,2.7-1.53,3.99c-1.21,2.58-1.76,5.66-5.14,6.63
			c-1.47,0.42-2.84,1.18-4.28,1.72c-1.46,0.55-2.15-0.05-1.84-1.56c0.32-1.56,0.56-3.16,1.07-4.66c0.48-1.41,0.77-2.89,2.39-3.77
			c2.42-1.32,4.64-3.01,6.96-4.52c1.26-0.82,1.4-1.63-0.1-2.66c-1.62,1.09-3.28,2.27-5,3.34c-0.55,0.34-1.27,0.41-1.91,0.6
			c-0.03-0.61-0.16-1.24-0.06-1.83c0.28-1.68,0.73-3.33,0.95-5.01c0.07-0.52-0.39-1.1-0.61-1.65c-0.5,0.43-1.29,0.78-1.44,1.31
			c-0.61,2.16-1.02,4.37-1.51,6.56c-0.44,1.98-0.76,3.95-2.99,4.95c-1.35,0.6-2.48,1.67-3.77,2.43c-0.62,0.36-1.38,0.49-2.08,0.72
			c-0.22-0.75-0.62-1.5-0.62-2.25c0-1.76,0.08-3.54,0.35-5.28c0.14-0.9,0.52-1.94,1.14-2.57c2.13-2.16,4.45-4.14,6.6-6.28
			c0.35-0.35,0.25-1.15,0.36-1.74c-0.62,0-1.44-0.27-1.81,0.03c-1.36,1.11-2.54,2.44-3.86,3.62c-0.4,0.36-1.01,0.49-1.52,0.73
			c-0.2-0.59-0.57-1.17-0.57-1.76c0.02-1.65,0.27-3.3,0.29-4.95c0.01-0.66-0.37-1.32-0.57-1.98c-0.19-0.01-0.38-0.02-0.57-0.03
			c-0.36,0.63-0.99,1.24-1.04,1.9c-0.2,2.81-0.13,5.64-0.36,8.44c-0.08,0.96-0.55,2.05-1.19,2.77c-1.32,1.48-2.86,2.77-4.36,4.08
			c-0.45,0.39-1.09,0.58-1.64,0.87c-0.31-0.61-0.77-1.19-0.91-1.84c-0.3-1.39-0.59-2.82-0.61-4.23c-0.02-1.27-0.04-2.79,0.59-3.78
			c1.63-2.55,3.65-4.83,5.45-7.28c1.1-1.49,1-1.64-0.99-2.52c-1.14,1.48-2.27,3.04-3.5,4.51c-0.41,0.49-1.07,0.77-1.61,1.15
			c-0.33-0.59-0.85-1.15-0.97-1.78c-0.27-1.51-0.27-3.07-0.56-4.57c-0.09-0.47-0.79-0.81-1.21-1.22c-0.28,0.5-0.82,1.01-0.78,1.48
			c0.24,2.9,0.63,5.8,0.91,8.7c0.07,0.7,0.16,1.59-0.19,2.09c-1.44,2.09-2.98,4.12-4.61,6.07c-0.9,1.08-1.54,0.84-1.92-0.5
			c-0.44-1.54-0.61-3.21-1.35-4.59c-1.27-2.37-0.24-4.23,0.79-6.19c1.04-2,2.14-3.97,3.06-6.03c0.23-0.51,0.12-1.6-0.25-1.87
			c-0.78-0.57-1.39,0.01-1.77,0.84c-0.71,1.56-1.44,3.11-2.26,4.62c-0.25,0.46-0.83,0.75-1.26,1.12c-0.32-0.39-0.79-0.74-0.93-1.18
			c-0.5-1.62-0.87-3.28-1.34-4.91C208.63,32.73,208.12,32,206.75,32.83z M73.08,74.16c0-9.43,0-18.86,0-28.27
			c-8.05,0-16.13,0-24.15,0c0,43.54,0,87.01,0,130.52c22.03,0,44,0,65.9,0c0-8.01,0-15.94,0-23.81c-0.68,0-1.34,0-2,0
			c-12.62,0.01-25.23,0.01-37.85,0.05c-1.76,0.01-1.94-0.94-1.94-2.34C73.08,125.04,73.08,99.76,73.08,74.16z M320.89,65.82
			c0-6.65,0-13.3,0-19.94c-7.94,0-15.91,0-23.82,0c0,43.58,0,87.1,0,130.55c21.89,0,43.72,0,65.57,0c0-7.97,0-15.94,0-23.82
			c-1.59,0-3.13,0-4.68,0c-11.28,0-22.56,0-33.84,0c-3.11,0-3.23-0.11-3.23-3.15C320.89,121.7,320.89,93.93,320.89,65.82z"/>
		<path class="st1" d="M0,222.5c203.79-0.17,407.58-0.17,611.52-0.17c0.09,0.11,0.04,0.31-0.02,0.32c-0.44,0.03-0.89,0.01-1.33,0.01
			C406.78,222.66,203.39,222.66,0,222.5z"/>
		<path class="st1" d="M504.65,124.99c0,17.22,0,34.27,0,51.41c-7.84,0-15.8,0-23.83,0c0-43.45,0-86.98,0-130.53
			c9.09,0,18.19,0,27.35,0c3.88,8.81,7.74,17.67,11.67,26.51c3.16,7.1,6.41,14.15,9.56,21.26c3.11,7.02,6.15,14.07,9.23,21.1
			c0.62,1.42,1.26,2.84,1.95,4.22c0.15,0.29,0.58,0.66,0.84,0.63c0.36-0.05,0.82-0.37,0.97-0.7c0.2-0.43,0.16-0.97,0.16-1.47
			c0.01-23.06,0-46.11,0-69.17c0-0.77,0-1.55,0-2.38c7.88,0,15.85,0,23.84,0c0,43.49,0,86.97,0,130.54c-9.02,0-18.11,0-27.34,0
			c-1.65-3.6-3.39-7.29-5.04-11.02c-3.14-7.09-6.22-14.22-9.36-21.32c-2.02-4.58-4.12-9.12-6.16-13.69
			c-1.52-3.42-2.99-6.87-4.51-10.29c-1.95-4.39-3.93-8.77-5.89-13.15c-0.52-1.16-0.97-2.37-1.57-3.48c-0.24-0.44-0.83-0.7-1.26-1.04
			c-0.21,0.47-0.59,0.93-0.59,1.41c-0.06,3.05-0.03,6.11-0.03,9.17C504.65,116.94,504.65,120.88,504.65,124.99z"/>
		<path class="st1" d="M447.65,98.32c0.55,2.33,1.02,4.53,1.56,6.72c1.5,6.1,2.99,12.21,4.56,18.3c1.33,5.18,2.82,10.31,4.15,15.49
			c1.88,7.32,3.66,14.67,5.49,22c1.31,5.23,2.64,10.46,3.94,15.61c-7.92,0-15.86,0-24.04,0c-0.94-3.65-1.93-7.4-2.88-11.17
			c-0.82-3.25-1.58-6.52-2.37-9.78c-0.29-1.2-1.12-1.48-2.26-1.47c-4.67,0.03-9.34,0.01-14,0.01c-5.06,0-10.12,0.04-15.17-0.04
			c-1.47-0.02-2.13,0.4-2.51,1.9c-1.34,5.18-2.88,10.31-4.3,15.47c-0.45,1.64-0.77,3.31-1.17,5.06c-8.09,0-16.18,0-24.15,0
			c11.69-43.41,23.41-86.94,35.14-130.54c8.11,0,16.26,0,24.62,0c0.91,3.72,1.83,7.53,2.77,11.34c0.69,2.77,1.4,5.54,2.1,8.31
			c2.09,8.23,4.17,16.46,6.28,24.68C446.1,92.89,446.87,95.54,447.65,98.32z M423.48,98.28c-0.25-1.13-0.43-2.29-0.8-3.38
			c-0.17-0.5-0.71-0.86-1.08-1.29c-0.34,0.38-0.78,0.7-0.99,1.14c-0.28,0.59-0.39,1.26-0.57,1.9c-1.39,5.07-2.78,10.14-4.15,15.21
			c-1.45,5.37-2.88,10.75-4.28,16.13c-0.45,1.72,0.3,2.45,2.08,2.24c1.25-0.15,2.52-0.27,3.78-0.28c4.05-0.03,8.1,0,12.15-0.01
			c0.91,0,1.95-0.01,1.62-1.39c-0.85-3.45-1.76-6.88-2.64-10.33C426.92,111.67,425.25,105.1,423.48,98.28z"/>
		<path class="st1" d="M206.82,32.75c1.3-0.76,1.81-0.02,2.1,1c0.47,1.63,0.84,3.29,1.34,4.91c0.14,0.45,0.61,0.79,0.93,1.18
			c0.43-0.37,1.01-0.65,1.26-1.12c0.82-1.5,1.55-3.06,2.26-4.62c0.38-0.83,0.99-1.41,1.77-0.84c0.36,0.27,0.48,1.35,0.25,1.87
			c-0.92,2.05-2.02,4.03-3.06,6.03c-1.03,1.96-2.06,3.83-0.79,6.19c0.74,1.37,0.91,3.05,1.35,4.59c0.38,1.35,1.02,1.58,1.92,0.5
			c1.63-1.95,3.17-3.98,4.61-6.07c0.35-0.51,0.26-1.4,0.19-2.09c-0.28-2.9-0.67-5.79-0.91-8.7c-0.04-0.47,0.51-0.99,0.78-1.48
			c0.42,0.4,1.12,0.75,1.21,1.22c0.3,1.5,0.29,3.06,0.56,4.57c0.11,0.63,0.63,1.19,0.97,1.78c0.54-0.38,1.2-0.66,1.61-1.15
			c1.23-1.48,2.36-3.03,3.5-4.51c1.99,0.87,2.09,1.02,0.99,2.52c-1.8,2.44-3.82,4.73-5.45,7.28c-0.63,0.99-0.61,2.5-0.59,3.78
			c0.02,1.41,0.3,2.84,0.61,4.23c0.14,0.65,0.6,1.23,0.91,1.84c0.55-0.28,1.18-0.47,1.64-0.87c1.5-1.31,3.04-2.6,4.36-4.08
			c0.64-0.72,1.11-1.81,1.19-2.77c0.23-2.8,0.17-5.63,0.36-8.44c0.05-0.65,0.68-1.27,1.04-1.9c0.19,0.01,0.38,0.02,0.57,0.03
			c0.2,0.66,0.57,1.32,0.57,1.98c-0.02,1.65-0.26,3.3-0.29,4.95c-0.01,0.58,0.37,1.17,0.57,1.76c0.51-0.24,1.12-0.37,1.52-0.73
			c1.31-1.18,2.49-2.5,3.86-3.62c0.37-0.3,1.19-0.04,1.81-0.03c-0.11,0.59,0,1.4-0.36,1.74c-2.16,2.14-4.47,4.12-6.6,6.28
			c-0.62,0.63-1,1.67-1.14,2.57c-0.26,1.74-0.35,3.52-0.35,5.28c0,0.75,0.4,1.5,0.62,2.25c0.7-0.23,1.46-0.36,2.08-0.72
			c1.29-0.76,2.42-1.83,3.77-2.43c2.23-1,2.54-2.97,2.99-4.95c0.49-2.19,0.9-4.4,1.51-6.56c0.15-0.53,0.94-0.88,1.44-1.31
			c0.22,0.55,0.68,1.14,0.61,1.65c-0.22,1.68-0.67,3.33-0.95,5.01c-0.1,0.59,0.03,1.22,0.06,1.83c0.64-0.19,1.37-0.26,1.91-0.6
			c1.72-1.07,3.38-2.25,5-3.34c1.5,1.04,1.36,1.85,0.1,2.66c-2.32,1.51-4.54,3.19-6.96,4.52c-1.61,0.88-1.91,2.36-2.39,3.77
			c-0.51,1.5-0.75,3.1-1.07,4.66c-0.31,1.51,0.38,2.11,1.84,1.56c1.44-0.54,2.81-1.3,4.28-1.72c3.38-0.97,3.94-4.04,5.14-6.63
			c0.6-1.29,1.07-2.64,1.53-3.99c0.35-1.03,1.13-1.26,1.96-0.94c0.27,0.11,0.43,1.1,0.28,1.56c-0.46,1.39-1.17,2.7-1.65,4.09
			c-0.21,0.6-0.07,1.32-0.09,1.99c0.71-0.03,1.48,0.11,2.13-0.11c1.3-0.43,2.55-1.03,3.8-1.6c0.68-0.31,1.42-0.79,1.78,0.24
			c0.29,0.84,0.09,1.6-0.94,1.99c-2.3,0.86-4.56,1.83-6.86,2.7c-1.56,0.59-2.76,1.42-3.35,3.12c-0.62,1.76-1.56,3.39-2.25,5.12
			c-0.58,1.44-0.07,2.01,1.41,1.71c1.51-0.31,3-0.72,4.53-0.95c2.16-0.33,3.7-1.32,4.77-3.32c1.1-2.04,2.5-3.92,3.83-5.83
			c0.33-0.48,0.94-1.09,1.4-1.07c0.48,0.02,0.93,0.73,1.28,1.04c-1.27,1.98-2.43,3.72-3.49,5.52c-0.2,0.34-0.18,0.98,0.01,1.34
			c0.11,0.21,0.78,0.24,1.17,0.18c1.89-0.32,3.77-0.74,5.67-1.04c0.38-0.06,0.81,0.27,1.22,0.42c-0.27,0.5-0.41,1.21-0.83,1.44
			c-0.7,0.4-1.56,0.51-2.36,0.71c-2.29,0.56-4.61,1.04-6.87,1.69c-0.73,0.21-1.52,0.71-1.97,1.32c-1.36,1.82-2.57,3.74-3.82,5.64
			c-0.75,1.13-0.44,1.81,0.93,1.8c2.49-0.04,5-0.02,7.44-0.44c0.99-0.17,1.85-1.38,2.67-2.21c1.78-1.81,3.44-3.74,5.27-5.49
			c0.39-0.37,1.31-0.19,1.98-0.26c-0.15,0.62-0.12,1.39-0.48,1.85c-0.99,1.25-2.18,2.35-3.22,3.57c-0.31,0.37-0.65,1.07-0.5,1.38
			c0.18,0.35,0.88,0.6,1.37,0.62c1.66,0.05,3.34-0.08,5,0c0.49,0.02,0.96,0.54,1.45,0.83c-0.49,0.46-0.96,1.29-1.49,1.32
			c-2.97,0.22-5.97,0.21-8.95,0.36c-0.61,0.03-1.33,0.3-1.76,0.71c-1.66,1.61-3.24,3.3-4.8,5c-1.08,1.17-0.71,2.19,0.89,2.39
			c2.29,0.29,4.6,0.51,6.91,0.61c0.58,0.03,1.24-0.43,1.76-0.81c2.39-1.78,4.72-3.65,7.14-5.39c0.41-0.29,1.15-0.12,1.74-0.17
			c-0.07,0.66,0.11,1.58-0.26,1.93c-1.15,1.1-2.53,1.95-3.77,2.96c-0.43,0.36-0.71,0.91-1.06,1.37c0.47,0.31,0.9,0.8,1.4,0.9
			c1.51,0.28,3.04,0.5,4.58,0.57c1.02,0.05,1.63,0.39,1.63,1.4c0,1.12-0.87,0.95-1.58,0.87c-2.73-0.3-5.46-0.79-8.2-0.88
			c-1.27-0.04-2.69,0.43-3.81,1.08c-1.66,0.97-3.09,2.31-4.64,3.47c-1.14,0.84-0.79,1.53,0.28,1.91c2.24,0.79,4.5,1.53,6.8,2.13
			c0.6,0.16,1.42-0.1,2.03-0.39c2.57-1.26,5.1-2.61,7.64-3.92c0.89-0.46,1.88-0.78,2.36,0.43c0.47,1.2-0.6,1.39-1.41,1.75
			c-1.36,0.6-2.71,1.27-4.01,1.99c-0.33,0.18-0.77,0.77-0.69,0.97c0.22,0.5,0.62,1.1,1.09,1.27c1.44,0.52,2.99,0.76,4.42,1.3
			c0.57,0.22,0.94,0.95,1.41,1.45c-0.51,0.27-1.1,0.87-1.5,0.76c-2.54-0.66-5.01-1.61-7.57-2.2c-1.33-0.31-2.89-0.45-4.15-0.04
			c-1.98,0.64-3.79,1.79-5.65,2.77c-0.4,0.21-1.01,0.69-0.97,0.95c0.07,0.45,0.5,0.99,0.93,1.21c2.16,1.12,4.36,2.19,6.58,3.19
			c0.45,0.2,1.1,0.16,1.59,0.01c2.9-0.86,5.76-1.85,8.68-2.64c0.56-0.15,1.31,0.37,1.98,0.59c-0.34,0.54-0.57,1.38-1.04,1.55
			c-1.54,0.58-3.19,0.86-4.76,1.37c-0.51,0.17-0.91,0.68-1.36,1.03c0.34,0.38,0.62,0.87,1.03,1.12c1.51,0.92,3.11,1.7,4.6,2.66
			c0.41,0.27,0.54,0.96,0.8,1.46c-0.61,0.16-1.37,0.62-1.8,0.41c-2.95-1.41-5.82-2.98-8.74-4.46c-0.32-0.16-0.77-0.27-1.09-0.17
			c-2.37,0.74-4.75,1.45-7.06,2.33c-1.43,0.55-1.46,1.13-0.25,2.07c1.87,1.46,3.71,2.97,5.71,4.23c0.69,0.43,1.82,0.29,2.72,0.21
			c2.8-0.25,5.58-0.63,8.38-0.86c0.4-0.03,0.85,0.54,1.28,0.83c-0.37,0.36-0.7,0.97-1.11,1.04c-1.73,0.29-3.5,0.37-5.24,0.63
			c-0.47,0.07-1.23,0.45-1.26,0.75c-0.05,0.47,0.28,1.15,0.67,1.47c1.62,1.33,3.32,2.55,4.95,3.77c-0.59,1.68-1.09,1.91-2.38,1
			c-2.44-1.72-4.8-3.55-7.22-5.29c-0.47-0.34-1.09-0.71-1.61-0.67c-2.42,0.17-4.84,0.4-7.23,0.78c-1.34,0.21-1.53,1.15-0.61,2.14
			c1.36,1.46,2.61,3.04,4.11,4.33c0.89,0.76,2.15,1.38,3.31,1.5c2.74,0.28,5.52,0.18,8.28,0.37c0.47,0.03,0.89,0.71,1.34,1.09
			c-0.44,0.38-0.89,1.09-1.33,1.09c-1.71,0-3.41-0.29-5.12-0.34c-0.58-0.02-1.18,0.38-1.77,0.58c0.27,0.55,0.43,1.2,0.83,1.63
			c1.13,1.22,2.33,2.39,3.56,3.51c0.9,0.82,0.48,1.55-0.14,2.12c-0.65,0.6-1.13,0.27-1.72-0.42c-2.11-2.42-4.34-4.74-6.56-7.06
			c-0.32-0.33-0.83-0.63-1.28-0.66c-2.31-0.18-4.63-0.32-6.95-0.37c-0.53-0.01-1.23,0.22-1.55,0.59c-0.18,0.2,0.18,1,0.45,1.43
			c1.1,1.78,2.15,3.61,3.43,5.26c0.6,0.78,1.6,1.47,2.55,1.72c3.02,0.79,6.11,1.34,9.21,2c0,0.66,0,1.24,0,2.12
			c-1.14-0.18-2.2-0.33-3.25-0.53c-0.54-0.1-1.06-0.37-1.6-0.41c-0.98-0.08-1.97-0.04-2.96-0.05c0.36,0.9,0.65,1.85,1.11,2.7
			c0.78,1.44,1.67,2.83,2.5,4.22c-1.71,1.58-1.73,1.54-2.88-0.34c-1.48-2.41-2.96-4.82-4.63-7.09c-0.56-0.75-1.66-1.21-2.6-1.55
			c-1.39-0.5-2.85-0.78-4.29-1.14c-0.53-0.13-1.08-0.27-1.62-0.28c-1.03-0.02-1.67,0.44-1.22,1.55c0.97,2.4,1.8,4.91,3.14,7.09
			c0.57,0.93,2.25,1.2,3.45,1.72c1.87,0.81,3.77,1.53,5.62,2.39c0.52,0.24,1.11,0.8,1.24,1.31c0.29,1.17-0.39,1.62-1.52,1.14
			c-1.61-0.69-3.19-1.46-4.82-2.1c-0.49-0.19-1.11-0.05-1.67-0.06c0.02,0.57-0.1,1.21,0.1,1.71c0.59,1.47,1.27,2.92,2,4.32
			c0.52,1,0.24,1.8-0.59,2.25c-0.23,0.13-1.2-0.57-1.44-1.08c-1.28-2.74-2.58-5.49-3.56-8.35c-0.55-1.6-1.84-1.74-2.96-2.3
			c-1.52-0.76-3.08-1.44-4.67-2.04c-0.44-0.17-1.14-0.12-1.51,0.14c-0.29,0.2-0.43,0.91-0.34,1.32c0.51,2.34,0.85,4.77,1.78,6.93
			c0.5,1.15,2.04,1.9,3.2,2.7c1.86,1.29,3.84,2.42,5.68,3.73c0.36,0.26,0.33,1.06,0.48,1.61c-0.53,0.09-1.19,0.44-1.55,0.24
			c-1.64-0.89-3.18-1.97-4.79-2.9c-0.41-0.24-0.98-0.21-1.47-0.3c-0.02,0.56-0.15,1.14-0.05,1.68c0.3,1.79,0.75,3.55,0.97,5.34
			c0.05,0.43-0.55,0.95-0.85,1.42c-0.45-0.4-1.17-0.74-1.3-1.23c-0.56-2.07-1.03-4.17-1.37-6.28c-0.43-2.72-1.37-4.89-4.22-5.97
			c-1.3-0.49-2.34-1.64-3.54-2.43c-0.32-0.21-0.96-0.39-1.16-0.23c-0.32,0.26-0.55,0.83-0.54,1.26c0.05,2.26,0.12,4.53,0.32,6.78
			c0.06,0.7,0.4,1.53,0.89,2c2.28,2.17,4.65,4.26,7.02,6.33c0.9,0.79,0.58,1.56-0.08,2.09c-0.27,0.22-1.19-0.02-1.57-0.34
			c-1.47-1.25-2.83-2.64-4.28-3.93c-0.29-0.26-0.76-0.32-1.14-0.47c-0.15,0.43-0.44,0.87-0.43,1.3c0.05,1.99,0.22,3.97,0.25,5.96
			c0.01,0.38-0.42,1.09-0.64,1.08c-0.46-0.01-0.97-0.32-1.34-0.64c-0.2-0.17-0.24-0.61-0.25-0.93c-0.11-2.82-0.12-5.64-0.33-8.44
			c-0.06-0.84-0.5-1.81-1.08-2.42c-1.51-1.61-3.2-3.05-4.81-4.58c-0.92-0.87-1.7-0.73-1.91,0.48c-0.43,2.55-0.91,5.12-0.87,7.68
			c0.01,1.03,1.28,2.07,2.03,3.07c1.46,1.94,3.02,3.81,4.38,5.82c0.24,0.35-0.25,1.21-0.4,1.83c-0.51-0.14-1.21-0.12-1.49-0.45
			c-1.21-1.43-2.27-2.99-3.44-4.45c-0.27-0.34-0.75-0.53-1.13-0.78c-0.24,0.44-0.63,0.87-0.71,1.34c-0.27,1.62-0.33,3.29-0.7,4.89
			c-0.15,0.63-0.9,1.12-1.37,1.67c-0.27-0.55-0.82-1.12-0.78-1.64c0.22-2.74,0.58-5.47,0.92-8.19c0.18-1.44-0.04-2.67-1.09-3.83
			c-1.24-1.37-2.22-2.99-3.37-4.44c-0.3-0.38-0.89-0.84-1.26-0.77c-0.38,0.07-0.8,0.68-0.95,1.14c-0.7,2.07-1.37,4.16-1.92,6.28
			c-0.17,0.64-0.13,1.48,0.15,2.07c1.3,2.73,2.67,5.43,4.11,8.1c0.45,0.82,0.55,1.41-0.26,1.98c-0.98,0.68-1.3-0.19-1.61-0.76
			c-0.76-1.39-1.39-2.86-2.16-4.25c-0.25-0.45-0.77-1.06-1.16-1.06c-0.4,0-0.99,0.59-1.16,1.05c-0.56,1.49-0.87,3.08-1.48,4.55
			c-0.24,0.59-1,0.97-1.52,1.45c-0.21-0.67-0.72-1.41-0.58-1.99c0.64-2.5,1.61-4.92,2.19-7.44c0.28-1.2,0.27-2.63-0.13-3.78
			c-0.67-1.92-1.73-3.72-2.71-5.53c-0.23-0.42-0.75-0.87-1.19-0.92c-0.31-0.04-0.83,0.49-1.04,0.88c-0.91,1.71-1.6,3.54-2.62,5.18
			c-1.01,1.61-0.57,3.06-0.06,4.6c0.82,2.5,1.68,4.98,2.4,7.5c0.12,0.43-0.35,1.03-0.55,1.55c-0.2,0.06-0.41,0.13-0.61,0.19
			c-0.49-0.74-1.12-1.43-1.43-2.24c-0.49-1.28-0.7-2.66-1.16-3.95c-0.16-0.44-0.7-1-1.11-1.03c-0.38-0.03-0.96,0.48-1.19,0.89
			c-0.75,1.35-1.29,2.82-2.09,4.14c-0.33,0.55-1.24,1.27-1.64,1.14c-1.03-0.33-0.99-1.18-0.47-2.15c1.34-2.49,2.49-5.08,3.86-7.55
			c0.65-1.18,0.71-2.25,0.31-3.47c-0.56-1.72-1.02-3.47-1.61-5.17c-0.16-0.46-0.64-1.1-1.02-1.14c-0.49-0.04-1.17,0.32-1.51,0.72
			c-1.24,1.48-2.3,3.11-3.55,4.58c-1.74,2.04-0.63,4.22-0.45,6.35c0.16,1.92,0.44,3.83,0.55,5.75c0.02,0.39-0.48,0.81-0.74,1.22
			c-0.41-0.33-1.11-0.61-1.17-1c-0.29-1.79-0.36-3.61-0.6-5.41c-0.07-0.53-0.46-1.02-0.71-1.53c-0.47,0.23-1.08,0.34-1.38,0.71
			c-1.19,1.45-2.24,3.02-3.46,4.44c-0.32,0.37-1.25,0.7-1.57,0.51c-0.82-0.5-0.76-1.25-0.12-2.07c1.85-2.34,3.65-4.72,5.38-7.14
			c0.45-0.62,0.83-1.48,0.8-2.22c-0.1-2.25-0.37-4.5-0.66-6.73c-0.17-1.28-1.18-1.59-2.15-0.71c-1.71,1.57-3.43,3.14-5.08,4.78
			c-0.43,0.43-0.84,1.1-0.88,1.68c-0.19,2.76-0.24,5.52-0.36,8.28c-0.02,0.55,0,1.17-0.27,1.61c-0.23,0.37-0.81,0.68-1.26,0.71
			c-0.21,0.01-0.69-0.68-0.68-1.05c0.05-1.82,0.28-3.63,0.34-5.45c0.02-0.6-0.29-1.22-0.45-1.83c-0.54,0.29-1.16,0.5-1.61,0.89
			c-1.41,1.23-2.72,2.58-4.16,3.77c-0.29,0.24-0.98-0.03-1.49-0.06c0.03-0.54-0.15-1.29,0.14-1.57c2.32-2.3,4.75-4.49,7.11-6.75
			c0.37-0.36,0.74-0.91,0.78-1.39c0.2-2.31,0.33-4.63,0.39-6.95c0.01-0.48-0.26-1.27-0.59-1.38c-0.44-0.16-1.14,0.08-1.6,0.36
			c-1.88,1.14-3.73,2.33-5.56,3.56c-0.38,0.26-0.79,0.68-0.91,1.11c-0.65,2.37-1.21,4.77-1.79,7.16c-0.24,0.99-0.36,2.03-0.7,2.98
			c-0.11,0.32-0.97,0.74-1.09,0.63c-0.38-0.32-0.86-0.91-0.8-1.31c0.28-1.79,0.78-3.55,1.1-5.34c0.1-0.57-0.14-1.2-0.23-1.81
			c-0.54,0.17-1.15,0.24-1.61,0.53c-1.45,0.9-2.88,1.84-4.26,2.85c-0.7,0.51-1.19,0.7-1.79-0.12c-0.67-0.93-0.05-1.48,0.54-1.93
			c1.19-0.9,2.44-1.71,3.7-2.51c1.53-0.98,3.13-1.85,4.62-2.88c0.44-0.3,0.74-0.95,0.88-1.5c0.48-1.85,0.94-3.72,1.26-5.61
			c0.12-0.69,0.03-1.63-0.37-2.11c-0.24-0.3-1.33-0.1-1.93,0.14c-1.84,0.73-3.7,1.46-5.41,2.45c-0.79,0.45-1.4,1.41-1.81,2.27
			c-1.21,2.6-2.23,5.28-3.43,7.87c-0.22,0.47-1.09,1.08-1.44,0.97c-0.85-0.28-1.21-1.07-0.75-2.02c0.76-1.58,1.53-3.16,2.21-4.78
			c0.18-0.43,0.25-1.18,0.01-1.45c-0.24-0.26-1.02-0.25-1.44-0.08c-1.67,0.69-3.27,1.58-4.97,2.2c-0.47,0.17-1.19-0.37-1.79-0.58
			c0.26-0.53,0.38-1.35,0.79-1.53c2.77-1.22,5.55-2.42,8.41-3.39c1.69-0.58,1.87-2.09,2.53-3.28c0.77-1.38,1.27-2.9,1.94-4.34
			c0.55-1.19,0.09-2.28-1.09-2.06c-2.59,0.48-5.3,0.92-7.63,2.05c-1.34,0.65-2.07,2.61-3.02,4.01c-1.02,1.51-1.92,3.11-3,4.58
			c-0.28,0.38-1.03,0.4-1.57,0.59c-0.15-0.57-0.6-1.29-0.4-1.7c0.6-1.27,1.48-2.42,2.19-3.65c0.44-0.77,0.78-1.59,1.17-2.39
			c-0.84-0.05-1.7-0.24-2.51-0.1c-1.41,0.24-2.76,0.78-4.17,1c-0.55,0.09-1.19-0.34-1.78-0.53c0.31-0.56,0.5-1.44,0.95-1.6
			c1.49-0.53,3.07-0.81,4.62-1.15c1.49-0.33,2.99-0.69,4.5-0.88c1.74-0.23,2.09-1.84,2.98-2.86c1.04-1.18,1.83-2.58,2.72-3.89
			c0.69-1.02,0.24-2.18-0.96-2.16c-2.54,0.03-5.11,0.06-7.6,0.49c-0.96,0.17-1.79,1.38-2.57,2.22c-1.76,1.89-3.43,3.88-5.22,5.74
			c-0.26,0.27-1.18,0.23-1.56-0.02c-0.65-0.44-0.78-1.13-0.09-1.81c1.25-1.24,2.48-2.51,3.65-3.82c0.36-0.41,0.51-1,0.75-1.51
			c-0.52-0.22-1.05-0.63-1.57-0.62c-1.65,0.03-3.31,0.15-4.95,0.37c-1.51,0.2-1.94-0.4-1.59-1.98c0.74-0.07,1.54-0.18,2.34-0.22
			c2.76-0.13,5.53-0.19,8.28-0.37c0.54-0.04,1.15-0.41,1.55-0.81c1.71-1.74,3.35-3.54,5.02-5.32c0.7-0.75,0.81-1.42-0.4-1.61
			c-2.5-0.4-5.01-0.89-7.52-0.95c-1-0.03-2.08,0.9-3.01,1.54c-2,1.38-3.94,2.84-5.88,4.3c-1.05,0.79-1.89,0.78-2.62-0.69
			c1.11-0.88,2.25-1.81,3.41-2.71c0.39-0.31,0.91-0.48,1.23-0.84c0.48-0.55,0.85-1.2,1.26-1.81c-0.73-0.3-1.44-0.73-2.19-0.87
			c-1.51-0.28-3.07-0.33-4.57-0.63c-0.4-0.08-0.68-0.75-1.02-1.16c0.4-0.26,0.82-0.78,1.21-0.75c2.42,0.17,4.88,0.23,7.23,0.77
			c2.34,0.54,4.2,0.16,5.97-1.42c1.28-1.14,2.65-2.17,4.05-3.15c1.07-0.75,0.92-1.39-0.15-1.76c-2.5-0.87-5.03-1.64-7.57-2.38
			c-0.35-0.1-0.85,0.17-1.23,0.36c-2.62,1.34-5.23,2.7-7.84,4.05c-0.34,0.18-0.75,0.44-1.07,0.39c-0.52-0.09-1.13-0.32-1.44-0.7
			c-0.14-0.17,0.22-1.07,0.56-1.26c1.68-0.95,3.45-1.73,5.14-2.66c0.45-0.25,0.75-0.79,1.11-1.2c-0.42-0.28-0.8-0.69-1.26-0.83
			c-1.78-0.55-3.58-1.05-5.39-1.51c-0.94-0.23-1.28-0.88-0.85-1.57c0.27-0.42,1.2-0.78,1.69-0.64c2.97,0.83,5.87,1.89,8.84,2.67
			c0.87,0.23,2-0.02,2.87-0.39c1.78-0.76,3.47-1.73,5.16-2.68c0.43-0.24,0.97-0.76,0.97-1.15c0-0.39-0.55-0.92-0.98-1.15
			c-1.91-1.02-3.85-1.98-5.81-2.92c-1.88-0.9-3.55,0.26-5.28,0.68c-1.97,0.48-3.89,1.2-5.87,1.64c-0.51,0.11-1.16-0.44-1.74-0.69
			c0.51-0.53,0.92-1.3,1.54-1.53c1.58-0.6,3.27-0.92,4.87-1.46c0.43-0.15,1.04-0.72,1.01-1.04c-0.04-0.41-0.59-0.88-1.03-1.11
			c-1.58-0.85-3.23-1.56-4.8-2.44c-0.38-0.21-0.5-0.87-0.75-1.32c0.62-0.17,1.39-0.66,1.85-0.46c2.11,0.95,4.26,1.9,6.16,3.2
			c2.42,1.65,4.73,1.39,7.23,0.44c1.27-0.48,2.63-0.73,3.94-1.13c0.33-0.1,0.76-0.36,0.84-0.63c0.08-0.26-0.15-0.75-0.39-0.95
			c-1.97-1.6-3.97-3.18-6-4.7c-0.41-0.31-1.04-0.5-1.56-0.46c-2.03,0.14-4.05,0.4-6.07,0.61c-1.21,0.13-2.41,0.38-3.61,0.34
			c-0.52-0.02-1.03-0.62-1.54-0.96c0.5-0.42,0.96-1.08,1.52-1.2c1.28-0.26,2.62-0.23,3.94-0.35c0.44-0.04,0.89-0.09,1.3-0.23
			c1.31-0.45,1.43-1.08,0.33-1.95c-1.13-0.89-2.34-1.67-3.48-2.54c-0.6-0.46-1.15-1-1.81-1.59c0.55-0.58,0.99-1.05,1.53-1.62
			c2.77,2.09,5.44,4.21,8.23,6.16c0.73,0.51,1.82,0.76,2.73,0.73c1.92-0.06,3.84-0.33,5.74-0.63c0.6-0.09,1.15-0.53,1.73-0.8
			c-0.27-0.5-0.46-1.07-0.81-1.49c-1.18-1.39-2.5-2.67-3.62-4.11c-0.97-1.25-2.07-1.81-3.69-1.79c-2.7,0.04-5.42-0.07-8.11-0.29
			c-0.54-0.04-1.38-0.82-1.45-1.35c-0.15-1.09,0.83-0.85,1.55-0.84c1.56,0.04,3.11,0.1,4.67,0.03c0.54-0.02,1.22-0.26,1.54-0.64
			c0.17-0.2-0.16-1.04-0.47-1.4c-0.97-1.14-2.06-2.17-3.07-3.28c-0.5-0.55-1.58-0.96-0.6-1.99c0.99-1.05,1.74-0.31,2.37,0.37
			c2,2.15,3.91,4.37,5.91,6.51c0.42,0.46,1.02,0.97,1.59,1.03c2.25,0.24,4.52,0.34,6.78,0.4c0.53,0.01,1.32-0.24,1.54-0.63
			c0.2-0.35-0.11-1.12-0.38-1.58c-1.15-1.93-2.34-3.84-3.59-5.71c-0.27-0.4-0.81-0.74-1.29-0.85c-3.13-0.72-6.3-1.33-9.42-2.1
			c-0.48-0.12-0.8-0.87-1.19-1.32c0.49-0.29,1.01-0.87,1.46-0.82c1.8,0.23,3.56,0.69,5.35,0.99c0.54,0.09,1.11-0.06,1.67-0.09
			c-0.15-0.54-0.19-1.14-0.46-1.61c-0.92-1.56-1.96-3.04-2.85-4.61c-0.2-0.36,0-0.94,0.02-1.42c0.63,0.07,1.55-0.11,1.84,0.24
			c0.91,1.1,1.58,2.39,2.36,3.6c1.02,1.58,1.98,3.19,3.1,4.69c0.39,0.52,1.16,0.85,1.83,1.03c2.02,0.54,4.07,1.01,6.13,1.42
			c0.42,0.08,1.15-0.05,1.32-0.33c0.23-0.38,0.18-1.05,0.01-1.5c-0.78-2-1.53-4.04-2.56-5.91c-0.48-0.88-1.46-1.64-2.39-2.08
			c-2.53-1.18-5.17-2.12-7.72-3.26c-0.47-0.21-1.11-1.03-1-1.36c0.24-0.76,0.9-1.16,1.85-0.69c1.53,0.75,3.09,1.44,4.69,2.03
			c0.55,0.2,1.22,0.05,1.84,0.07c-0.05-0.56,0.02-1.18-0.18-1.69c-0.63-1.58-1.41-3.1-2.01-4.7c-0.16-0.43,0.14-1.02,0.22-1.54
			c0.62,0.2,1.6,0.21,1.8,0.62c1.02,2,1.99,4.05,2.68,6.18c0.76,2.36,1.83,4.17,4.42,4.86c1.48,0.39,2.84,1.24,4.31,1.71
			c1.33,0.43,1.95-0.16,1.68-1.46c-0.43-2.1-0.86-4.21-1.44-6.28c-0.57-2.05-2.64-2.56-4.12-3.65c-1.56-1.14-3.27-2.06-4.83-3.21
			c-0.48-0.35-0.64-1.12-0.95-1.7c0.76-0.06,1.66-0.41,2.25-0.12c1.27,0.62,2.36,1.62,3.59,2.34c0.57,0.33,1.3,0.38,1.96,0.56
			c0.08-0.6,0.29-1.23,0.2-1.81c-0.21-1.36-0.58-2.69-0.87-4.04c-0.09-0.43-0.28-0.94-0.13-1.29c0.18-0.44,0.62-0.89,1.05-1.05
			c0.19-0.07,0.85,0.48,0.95,0.84c0.49,1.69,0.86,3.42,1.26,5.14c0.32,1.38,0.37,2.91,1.01,4.12c0.6,1.13,1.74,2.05,2.8,2.85
			c1.44,1.08,3.03,1.97,4.57,2.91c0.93,0.56,1.43,0.08,1.4-0.83c-0.08-2.54-0.12-5.09-0.48-7.6c-0.12-0.85-1.05-1.65-1.74-2.34
			c-2.01-1.98-4.11-3.85-6.1-5.85c-0.26-0.26-0.07-0.99-0.08-1.49c0.55,0.01,1.28-0.22,1.61,0.06c1.45,1.2,2.75,2.56,4.16,3.8
			c0.36,0.31,0.98,0.56,1.4,0.47c0.27-0.06,0.58-0.79,0.56-1.22c-0.06-1.82-0.33-3.63-0.31-5.45c0.01-0.61,0.63-1.21,0.97-1.82
			c0.41,0.56,1.13,1.11,1.17,1.7c0.2,2.86,0.15,5.75,0.36,8.61c0.07,0.89,0.51,1.92,1.11,2.58c1.49,1.61,3.17,3.05,4.78,4.54
			c0.95,0.88,1.63,0.76,1.86-0.47c0.44-2.38,0.78-4.78,1-7.19c0.06-0.62-0.39-1.37-0.79-1.94c-1.72-2.43-3.49-4.82-5.27-7.21
			c-0.44-0.6-1.06-1.32-0.15-1.76c0.48-0.23,1.57,0.1,1.98,0.55c1.05,1.12,1.81,2.5,2.81,3.67c0.4,0.47,1.15,0.65,1.74,0.95
			c0.26-0.56,0.67-1.1,0.75-1.68c0.2-1.52,0.15-3.09,0.42-4.6c0.09-0.53,0.81-0.95,1.24-1.41c0.29,0.54,0.87,1.1,0.83,1.6
			c-0.2,2.35-0.52,4.7-0.88,7.03c-0.31,2.01-0.16,3.78,1.38,5.36c1.21,1.25,2.08,2.84,3.23,4.15c0.99,1.13,1.59,0.95,2.07-0.47
			c0.65-1.94,1.45-3.85,1.81-5.84c0.21-1.15-0.1-2.54-0.6-3.63c-1.1-2.39-2.47-4.66-3.73-6.97c-0.5-0.91-0.26-1.72,0.6-2.08
			c0.31-0.13,1.16,0.42,1.41,0.86c0.91,1.58,1.64,3.26,2.51,4.86c0.2,0.37,0.72,0.82,1.04,0.79c0.36-0.04,0.82-0.54,0.95-0.94
			c0.59-1.78,1.01-3.61,1.65-5.38c0.16-0.44,0.87-0.68,1.33-1.01c0.3,0.56,0.97,1.21,0.85,1.65c-0.87,3.12-1.99,6.17-2.84,9.29
			c-0.21,0.77,0.15,1.78,0.48,2.58c0.7,1.66,1.52,3.27,2.38,4.85c0.29,0.53,0.85,1.2,1.34,1.23c0.43,0.03,1.08-0.63,1.36-1.13
			c1.06-1.96,2.13-3.94,2.94-6.01c0.3-0.76,0.03-1.83-0.19-2.71c-0.72-2.88-1.55-5.73-2.31-8.6
			C206.57,33.38,206.71,33.09,206.82,32.75z M212.54,53.43c-0.4-1.09-0.75-2.2-1.21-3.27c-0.21-0.5-0.62-0.91-0.94-1.36
			c-0.46,0.41-1.06,0.75-1.34,1.26c-0.95,1.76-1.74,3.6-2.69,5.36c-0.31,0.57-0.9,0.98-1.37,1.46c-0.5-0.51-1.16-0.93-1.48-1.53
			c-0.99-1.8-1.8-3.69-2.78-5.5c-0.28-0.51-0.88-0.84-1.34-1.25c-0.35,0.51-0.84,0.98-1.03,1.55c-0.67,2.1-1.2,4.24-1.89,6.34
			c-0.14,0.42-0.68,0.87-1.12,0.99c-0.32,0.09-0.92-0.24-1.16-0.56c-1.45-1.88-2.82-3.83-4.28-5.7c-0.32-0.41-0.9-0.61-1.36-0.91
			c-0.23,0.46-0.6,0.89-0.66,1.37c-0.34,2.39-0.56,4.8-0.91,7.2c-0.07,0.47-0.39,1.16-0.73,1.26c-0.39,0.11-1.04-0.22-1.4-0.55
			c-1.62-1.5-3.15-3.1-4.78-4.59c-0.4-0.37-1.14-0.74-1.55-0.6c-0.36,0.12-0.67,0.97-0.66,1.48c0.06,2.32,0.26,4.63,0.35,6.95
			c0.02,0.43-0.15,1.09-0.44,1.25c-0.32,0.17-0.97,0-1.34-0.23c-2.01-1.26-3.96-2.62-5.98-3.86c-0.4-0.25-1.06-0.3-1.49-0.14
			c-0.2,0.07-0.28,0.88-0.2,1.31c0.44,2.2,1,4.38,1.41,6.59c0.11,0.59-0.13,1.24-0.2,1.86c-0.6-0.09-1.25-0.06-1.8-0.28
			c-2.05-0.82-4.06-1.75-6.11-2.57c-0.41-0.16-1.19-0.21-1.34,0.01c-0.25,0.36-0.29,1.05-0.12,1.48c0.82,2.04,1.77,4.03,2.6,6.07
			c0.23,0.56,0.46,1.45,0.19,1.8c-0.29,0.37-1.21,0.44-1.79,0.33c-2-0.4-3.96-0.98-5.96-1.4c-0.58-0.12-1.22,0.09-1.84,0.15
			c0.11,0.59,0.08,1.27,0.36,1.76c1.1,1.86,2.33,3.64,3.43,5.49c0.26,0.43,0.42,1.15,0.23,1.54c-0.15,0.31-0.91,0.48-1.4,0.46
			c-2.32-0.08-4.63-0.28-6.95-0.34c-0.46-0.01-1.19,0.3-1.33,0.65c-0.14,0.33,0.22,1.01,0.55,1.37c1.56,1.72,3.2,3.38,4.78,5.08
			c0.93,1,0.68,1.8-0.7,2c-2.34,0.36-4.7,0.56-7.03,0.93c-0.5,0.08-0.95,0.55-1.42,0.84c0.35,0.46,0.62,1.02,1.06,1.37
			c2.11,1.67,4.27,3.28,6.74,5.17c-0.81,0.54-1.26,1-1.8,1.17c-2.36,0.77-4.74,1.43-7.11,2.18c-0.32,0.1-0.73,0.42-0.78,0.69
			c-0.05,0.28,0.22,0.77,0.49,0.91c2.13,1.15,4.3,2.21,6.42,3.38c0.51,0.28,1.19,0.84,1.2,1.28c0.01,0.49-0.55,1.2-1.04,1.47
			c-1.98,1.06-4.05,1.94-6.04,2.97c-0.45,0.23-0.74,0.79-1.11,1.19c0.39,0.35,0.73,0.88,1.18,1.02c2,0.62,4.04,1.08,6.04,1.69
			c0.61,0.19,1.6,0.67,1.6,0.99c-0.02,0.62-0.49,1.39-1.01,1.82c-1.61,1.34-3.36,2.51-4.99,3.84c-0.4,0.33-0.53,0.99-0.78,1.5
			c0.47,0.22,0.91,0.56,1.4,0.63c1.31,0.18,2.64,0.21,3.95,0.36c1.09,0.12,2.19,0.27,3.26,0.53c1.24,0.29,1.33,1.09,0.56,1.95
			c-1.52,1.68-3.13,3.28-4.65,4.97c-0.39,0.44-0.56,1.08-0.83,1.63c0.59,0.2,1.19,0.6,1.77,0.58c2.59-0.1,5.18-0.32,7.67-0.49
			c0.84,0.88,0.71,1.5,0.05,2.37c-1.37,1.8-2.54,3.75-3.73,5.67c-0.22,0.36-0.14,0.92-0.2,1.38c0.46,0.04,0.94,0.2,1.37,0.11
			c2.16-0.43,4.29-0.98,6.46-1.36c0.64-0.11,1.35,0.17,2.02,0.27c-0.11,0.55-0.15,1.13-0.35,1.64c-0.86,2.09-1.8,4.14-2.63,6.24
			c-0.17,0.43-0.08,1.07,0.14,1.48c0.1,0.2,0.83,0.25,1.18,0.11c2.19-0.9,4.37-1.83,6.52-2.82c1.55-0.71,2.12-0.45,1.87,1.23
			c-0.32,2.17-0.94,4.3-1.35,6.47c-0.11,0.57,0.11,1.2,0.18,1.8c0.62-0.12,1.33-0.07,1.84-0.38c1.74-1.06,3.38-2.28,5.12-3.35
			c0.5-0.31,1.22-0.42,1.8-0.34c0.2,0.03,0.41,0.92,0.39,1.41c-0.08,2.32-0.27,4.63-0.32,6.95c-0.01,0.52,0.38,1.05,0.59,1.57
			c0.45-0.26,0.97-0.44,1.35-0.78c1.68-1.53,3.28-3.14,4.99-4.63c0.43-0.38,1.17-0.54,1.77-0.53c0.23,0,0.6,0.74,0.65,1.18
			c0.26,2.24,0.38,4.49,0.66,6.73c0.07,0.57,0.52,1.09,0.8,1.63c0.51-0.34,1.14-0.59,1.5-1.05c1.4-1.78,2.69-3.64,4.08-5.42
			c0.31-0.4,0.98-0.96,1.27-0.85c0.46,0.17,0.92,0.77,1.08,1.29c0.65,1.98,1.13,4.02,1.78,6c0.22,0.67,0.77,1.23,1.16,1.85
			c0.52-0.52,1.21-0.95,1.54-1.57c0.94-1.78,1.69-3.67,2.63-5.46c0.26-0.49,0.91-1.05,1.39-1.06c0.44-0.01,1.05,0.61,1.3,1.1
			c0.96,1.86,1.77,3.81,2.72,5.67c0.28,0.54,0.87,0.93,1.31,1.39c0.37-0.48,0.91-0.92,1.1-1.46c0.72-2.09,1.3-4.22,2.01-6.31
			c0.19-0.55,0.66-0.99,1.01-1.49c0.45,0.34,0.99,0.61,1.32,1.04c1.39,1.79,2.68,3.65,4.07,5.43c0.3,0.38,0.91,0.79,1.32,0.74
			c0.31-0.04,0.69-0.77,0.76-1.23c0.35-2.34,0.56-4.69,0.92-7.03c0.23-1.5,0.9-1.73,2.07-0.71c1.5,1.31,2.9,2.74,4.4,4.05
			c0.54,0.47,1.26,0.73,1.89,1.08c0.27-0.72,0.76-1.44,0.76-2.16c-0.02-2.09-0.3-4.19-0.35-6.28c-0.01-0.5,0.39-1.1,0.78-1.47
			c0.13-0.13,0.84,0.23,1.21,0.47c1.9,1.22,3.76,2.51,5.68,3.71c0.4,0.25,1.27,0.42,1.45,0.22c0.33-0.37,0.49-1.09,0.39-1.6
			c-0.44-2.16-1.03-4.28-1.48-6.43c-0.1-0.49-0.07-1.33,0.21-1.5c0.41-0.24,1.16-0.18,1.65,0.03c2.1,0.85,4.14,1.82,6.23,2.69
			c0.42,0.17,1.22,0.26,1.36,0.06c0.25-0.37,0.31-1.05,0.14-1.49c-0.87-2.21-1.86-4.37-2.74-6.58c-0.17-0.43-0.19-1.12,0.05-1.44
			c0.2-0.28,0.92-0.34,1.35-0.25c2.38,0.5,4.73,1.11,7.11,1.59c0.44,0.09,1.11-0.11,1.39-0.43c0.19-0.22,0.02-0.96-0.22-1.32
			c-1.25-1.94-2.6-3.82-3.84-5.77c-0.28-0.44-0.43-1.15-0.28-1.61c0.09-0.25,0.95-0.34,1.46-0.32c2.15,0.08,4.3,0.28,6.45,0.32
			c0.58,0.01,1.17-0.38,1.76-0.58c-0.23-0.51-0.37-1.11-0.72-1.52c-1.35-1.53-2.82-2.95-4.15-4.5c-0.46-0.54-0.65-1.31-0.96-1.98
			c0.7-0.26,1.38-0.66,2.1-0.76c2.13-0.28,4.28-0.41,6.4-0.68c0.41-0.05,1.05-0.46,1.08-0.77c0.05-0.44-0.22-1.1-0.57-1.38
			c-1.75-1.33-3.63-2.5-5.35-3.87c-0.6-0.48-0.86-1.37-1.35-2.21c2.66-0.79,4.85-1.39,6.99-2.13c0.74-0.26,1.37-0.87,2.05-1.32
			c-0.57-0.55-1.05-1.25-1.71-1.61c-1.68-0.92-3.48-1.63-5.17-2.54c-0.5-0.27-0.96-0.88-1.12-1.43c-0.07-0.24,0.6-0.83,1.05-1.06
			c1.77-0.93,3.6-1.74,5.36-2.69c0.61-0.33,1.07-0.96,1.59-1.46c-0.58-0.44-1.09-1.04-1.74-1.28c-1.96-0.71-3.97-1.29-5.97-1.88
			c-1.22-0.36-1.34-1.05-0.64-1.95c0.33-0.42,0.83-0.72,1.27-1.05c1.5-1.13,3.04-2.21,4.5-3.38c0.38-0.31,0.77-0.92,0.72-1.34
			c-0.04-0.31-0.77-0.68-1.23-0.76c-2.34-0.37-4.69-0.63-7.03-0.98c-0.43-0.06-1.15-0.32-1.18-0.57c-0.06-0.46,0.15-1.08,0.47-1.44
			c1.51-1.69,3.12-3.3,4.65-4.97c0.34-0.37,0.48-0.92,0.72-1.38c-0.51-0.25-1.02-0.71-1.52-0.7c-2.21,0.04-4.41,0.26-6.62,0.33
			c-0.52,0.02-1.4-0.15-1.51-0.44c-0.18-0.52-0.07-1.32,0.23-1.81c1.03-1.69,2.25-3.28,3.3-4.96c0.37-0.59,0.44-1.35,0.65-2.04
			c-0.78-0.07-1.6-0.31-2.34-0.17c-2.09,0.41-4.13,1.06-6.22,1.45c-1.48,0.28-1.92-0.43-1.3-1.84c0.85-1.93,1.77-3.82,2.55-5.77
			c0.25-0.63,0.12-1.42,0.16-2.14c-0.73,0.1-1.52,0.07-2.18,0.34c-1.83,0.75-3.59,1.68-5.41,2.44c-0.49,0.21-1.32,0.31-1.65,0.04
			c-0.33-0.27-0.39-1.1-0.29-1.63c0.43-2.16,1.01-4.29,1.44-6.44c0.11-0.53-0.11-1.12-0.18-1.69c-0.6,0.13-1.29,0.11-1.79,0.41
			c-1.92,1.17-3.76,2.48-5.68,3.65c-1.33,0.81-1.88,0.43-1.81-1.15c0.11-2.43,0.28-4.85,0.35-7.28c0.01-0.42-0.35-0.85-0.55-1.27
			c-0.42,0.2-0.92,0.31-1.25,0.61c-1.76,1.61-3.45,3.28-5.21,4.88c-0.32,0.29-0.93,0.62-1.23,0.49c-0.39-0.16-0.79-0.72-0.86-1.16
			c-0.35-2.39-0.58-4.8-0.91-7.2c-0.07-0.49-0.41-0.94-0.62-1.41c-0.43,0.26-0.98,0.42-1.28,0.79c-1.47,1.79-2.83,3.68-4.34,5.44
			c-0.46,0.54-1.25,0.8-1.99,1.24C213.31,56.12,212.96,54.91,212.54,53.43z"/>
		<path class="st1" d="M73.08,74.32c0,25.44,0,50.71-0.03,75.99c0,1.41,0.18,2.35,1.94,2.34c12.62-0.05,25.23-0.04,37.85-0.05
			c0.66,0,1.31,0,2,0c0,7.88,0,15.8,0,23.81c-21.9,0-43.87,0-65.9,0c0-43.51,0-86.98,0-130.52c8.02,0,16.1,0,24.15,0
			C73.08,55.3,73.08,64.73,73.08,74.32z"/>
		<path class="st1" d="M320.88,65.99c0,27.94,0,55.71,0,83.48c0,3.03,0.12,3.15,3.23,3.15c11.28,0,22.56,0,33.84,0
			c1.55,0,3.1,0,4.68,0c0,7.89,0,15.86,0,23.82c-21.85,0-43.67,0-65.57,0c0-43.45,0-86.97,0-130.55c7.91,0,15.88,0,23.82,0
			C320.89,52.52,320.89,59.17,320.88,65.99z"/>
		<path class="st0" d="M423.53,98.41c1.72,6.69,3.39,13.26,5.06,19.82c0.88,3.44,1.8,6.87,2.64,10.33c0.34,1.38-0.71,1.39-1.62,1.39
			c-4.05,0.01-8.1-0.02-12.15,0.01c-1.26,0.01-2.53,0.14-3.78,0.28c-1.77,0.21-2.52-0.52-2.08-2.24c1.4-5.38,2.83-10.76,4.28-16.13
			c1.37-5.08,2.76-10.14,4.15-15.21c0.17-0.64,0.28-1.31,0.57-1.9c0.21-0.44,0.65-0.76,0.99-1.14c0.37,0.43,0.92,0.79,1.08,1.29
			C423.05,95.99,423.22,97.15,423.53,98.41z"/>
		<path class="st0" d="M212.57,53.56c0.39,1.34,0.74,2.56,1.24,4.24c0.73-0.44,1.53-0.7,1.99-1.24c1.5-1.76,2.87-3.65,4.34-5.44
			c0.3-0.37,0.84-0.53,1.28-0.79c0.21,0.47,0.55,0.92,0.62,1.41c0.33,2.39,0.56,4.8,0.91,7.2c0.06,0.44,0.47,1,0.86,1.16
			c0.3,0.12,0.91-0.2,1.23-0.49c1.76-1.6,3.46-3.27,5.21-4.88c0.33-0.3,0.83-0.41,1.25-0.61c0.19,0.42,0.56,0.85,0.55,1.27
			c-0.07,2.43-0.24,4.85-0.35,7.28c-0.07,1.58,0.48,1.96,1.81,1.15c1.92-1.17,3.76-2.48,5.68-3.65c0.5-0.3,1.19-0.28,1.79-0.41
			c0.07,0.56,0.29,1.16,0.18,1.69c-0.44,2.16-1.01,4.29-1.44,6.44c-0.11,0.53-0.04,1.35,0.29,1.63c0.32,0.27,1.15,0.16,1.65-0.04
			c1.83-0.76,3.58-1.69,5.41-2.44c0.66-0.27,1.45-0.23,2.18-0.34c-0.04,0.72,0.09,1.5-0.16,2.14c-0.77,1.96-1.7,3.85-2.55,5.77
			c-0.62,1.41-0.17,2.12,1.3,1.84c2.09-0.39,4.13-1.05,6.22-1.45c0.74-0.15,1.56,0.1,2.34,0.17c-0.21,0.68-0.29,1.45-0.65,2.04
			c-1.05,1.69-2.26,3.27-3.3,4.96c-0.3,0.49-0.41,1.29-0.23,1.81c0.1,0.3,0.98,0.46,1.51,0.44c2.21-0.07,4.41-0.29,6.62-0.33
			c0.5-0.01,1.01,0.45,1.52,0.7c-0.23,0.47-0.38,1.01-0.72,1.38c-1.53,1.68-3.13,3.28-4.65,4.97c-0.32,0.36-0.54,0.98-0.47,1.44
			c0.03,0.25,0.75,0.51,1.18,0.57c2.34,0.35,4.69,0.61,7.03,0.98c0.46,0.07,1.19,0.45,1.23,0.76c0.05,0.42-0.34,1.04-0.72,1.34
			c-1.46,1.18-3,2.26-4.5,3.38c-0.44,0.33-0.95,0.62-1.27,1.05c-0.7,0.9-0.58,1.59,0.64,1.95c2,0.59,4.01,1.17,5.97,1.88
			c0.65,0.23,1.16,0.84,1.74,1.28c-0.53,0.49-0.98,1.12-1.59,1.46c-1.75,0.96-3.59,1.76-5.36,2.69c-0.44,0.23-1.11,0.82-1.05,1.06
			c0.16,0.55,0.62,1.16,1.12,1.43c1.69,0.91,3.48,1.62,5.17,2.54c0.67,0.36,1.15,1.06,1.71,1.61c-0.68,0.45-1.3,1.06-2.05,1.32
			c-2.14,0.74-4.33,1.33-6.99,2.13c0.49,0.84,0.75,1.73,1.35,2.21c1.72,1.37,3.6,2.54,5.35,3.87c0.36,0.27,0.63,0.94,0.57,1.38
			c-0.04,0.31-0.67,0.72-1.08,0.77c-2.13,0.27-4.28,0.4-6.4,0.68c-0.72,0.1-1.4,0.5-2.1,0.76c0.31,0.67,0.5,1.44,0.96,1.98
			c1.33,1.55,2.8,2.97,4.15,4.5c0.36,0.4,0.49,1.01,0.72,1.52c-0.59,0.21-1.18,0.59-1.76,0.58c-2.15-0.04-4.3-0.24-6.45-0.32
			c-0.51-0.02-1.37,0.07-1.46,0.32c-0.16,0.46-0.01,1.17,0.28,1.61c1.24,1.95,2.59,3.83,3.84,5.77c0.23,0.36,0.41,1.09,0.22,1.32
			c-0.27,0.32-0.95,0.52-1.39,0.43c-2.38-0.48-4.73-1.09-7.11-1.59c-0.44-0.09-1.15-0.02-1.35,0.25c-0.24,0.32-0.22,1.01-0.05,1.44
			c0.88,2.21,1.87,4.37,2.74,6.58c0.17,0.43,0.11,1.12-0.14,1.49c-0.14,0.2-0.94,0.11-1.36-0.06c-2.09-0.87-4.13-1.84-6.23-2.69
			c-0.5-0.2-1.24-0.27-1.65-0.03c-0.28,0.17-0.32,1.01-0.21,1.5c0.46,2.15,1.05,4.28,1.48,6.43c0.1,0.51-0.06,1.23-0.39,1.6
			c-0.18,0.21-1.04,0.03-1.45-0.22c-1.92-1.19-3.78-2.48-5.68-3.71c-0.38-0.24-1.08-0.6-1.21-0.47c-0.39,0.37-0.79,0.97-0.78,1.47
			c0.05,2.1,0.33,4.19,0.35,6.28c0.01,0.72-0.49,1.44-0.76,2.16c-0.64-0.35-1.36-0.61-1.89-1.08c-1.5-1.31-2.9-2.74-4.4-4.05
			c-1.16-1.02-1.84-0.79-2.07,0.71c-0.36,2.34-0.57,4.69-0.92,7.03c-0.07,0.46-0.45,1.19-0.76,1.23c-0.41,0.05-1.02-0.36-1.32-0.74
			c-1.39-1.78-2.69-3.64-4.07-5.43c-0.33-0.43-0.87-0.7-1.32-1.04c-0.34,0.49-0.82,0.94-1.01,1.49c-0.71,2.09-1.29,4.23-2.01,6.31
			c-0.19,0.55-0.72,0.98-1.1,1.46c-0.45-0.46-1.03-0.84-1.31-1.39c-0.96-1.87-1.76-3.81-2.72-5.67c-0.25-0.49-0.86-1.1-1.3-1.1
			c-0.48,0.01-1.14,0.57-1.39,1.06c-0.94,1.79-1.68,3.68-2.63,5.46c-0.33,0.62-1.02,1.05-1.54,1.57c-0.4-0.61-0.94-1.18-1.16-1.85
			c-0.65-1.98-1.13-4.02-1.78-6c-0.17-0.51-0.62-1.12-1.08-1.29c-0.29-0.1-0.95,0.45-1.27,0.85c-1.39,1.79-2.68,3.65-4.08,5.42
			c-0.36,0.46-0.99,0.7-1.5,1.05c-0.28-0.54-0.73-1.06-0.8-1.63c-0.28-2.24-0.4-4.49-0.66-6.73c-0.05-0.43-0.42-1.17-0.65-1.18
			c-0.59-0.01-1.33,0.15-1.77,0.53c-1.71,1.49-3.31,3.1-4.99,4.63c-0.38,0.34-0.9,0.52-1.35,0.78c-0.21-0.52-0.6-1.05-0.59-1.57
			c0.05-2.32,0.24-4.63,0.32-6.95c0.02-0.49-0.19-1.38-0.39-1.41c-0.58-0.08-1.3,0.03-1.8,0.34c-1.74,1.06-3.38,2.29-5.12,3.35
			c-0.5,0.31-1.22,0.26-1.84,0.38c-0.07-0.6-0.29-1.23-0.18-1.8c0.4-2.16,1.03-4.29,1.35-6.47c0.25-1.68-0.32-1.94-1.87-1.23
			c-2.15,0.99-4.33,1.92-6.52,2.82c-0.34,0.14-1.07,0.08-1.18-0.11c-0.21-0.42-0.31-1.06-0.14-1.48c0.83-2.1,1.77-4.15,2.63-6.24
			c0.21-0.51,0.24-1.09,0.35-1.64c-0.68-0.1-1.38-0.38-2.02-0.27c-2.17,0.38-4.3,0.93-6.46,1.36c-0.43,0.09-0.91-0.07-1.37-0.11
			c0.06-0.47-0.02-1.02,0.2-1.38c1.19-1.93,2.37-3.87,3.73-5.67c0.67-0.88,0.79-1.49-0.05-2.37c-2.49,0.17-5.07,0.39-7.67,0.49
			c-0.58,0.02-1.18-0.38-1.77-0.58c0.27-0.55,0.43-1.19,0.83-1.63c1.51-1.69,3.13-3.29,4.65-4.97c0.78-0.86,0.68-1.66-0.56-1.95
			c-1.07-0.25-2.16-0.4-3.26-0.53c-1.31-0.15-2.64-0.18-3.95-0.36c-0.49-0.07-0.93-0.41-1.4-0.63c0.25-0.51,0.38-1.17,0.78-1.5
			c1.63-1.33,3.38-2.5,4.99-3.84c0.52-0.43,0.99-1.2,1.01-1.82c0.01-0.32-0.99-0.8-1.6-0.99c-2-0.61-4.04-1.07-6.04-1.69
			c-0.46-0.14-0.79-0.67-1.18-1.02c0.37-0.41,0.66-0.96,1.11-1.19c2-1.03,4.06-1.92,6.04-2.97c0.5-0.27,1.05-0.98,1.04-1.47
			c-0.01-0.44-0.69-1-1.2-1.28c-2.12-1.16-4.3-2.23-6.42-3.38c-0.27-0.14-0.54-0.64-0.49-0.91c0.05-0.27,0.46-0.59,0.78-0.69
			c2.36-0.75,4.75-1.42,7.11-2.18c0.54-0.18,0.99-0.63,1.8-1.17c-2.47-1.89-4.63-3.5-6.74-5.17c-0.44-0.35-0.71-0.91-1.06-1.37
			c0.47-0.29,0.91-0.76,1.42-0.84c2.34-0.36,4.7-0.57,7.03-0.93c1.38-0.21,1.63-1,0.7-2c-1.58-1.7-3.22-3.36-4.78-5.08
			c-0.33-0.36-0.69-1.04-0.55-1.37c0.14-0.35,0.87-0.66,1.33-0.65c2.32,0.06,4.63,0.26,6.95,0.34c0.48,0.02,1.24-0.14,1.4-0.46
			c0.19-0.39,0.02-1.11-0.23-1.54c-1.1-1.85-2.34-3.63-3.43-5.49c-0.29-0.49-0.25-1.17-0.36-1.76c0.61-0.06,1.26-0.27,1.84-0.15
			c2,0.41,3.96,1,5.96,1.4c0.58,0.12,1.51,0.04,1.79-0.33c0.27-0.34,0.04-1.24-0.19-1.8c-0.83-2.04-1.78-4.03-2.6-6.07
			c-0.17-0.43-0.13-1.12,0.12-1.48c0.15-0.22,0.94-0.17,1.34-0.01c2.05,0.82,4.06,1.75,6.11,2.57c0.55,0.22,1.2,0.19,1.8,0.28
			c0.08-0.62,0.31-1.27,0.2-1.86c-0.42-2.21-0.97-4.39-1.41-6.59c-0.09-0.43-0.01-1.23,0.2-1.31c0.43-0.15,1.1-0.1,1.49,0.14
			c2.02,1.24,3.97,2.6,5.98,3.86c0.37,0.23,1.02,0.4,1.34,0.23c0.29-0.16,0.46-0.82,0.44-1.25c-0.09-2.32-0.29-4.63-0.35-6.95
			c-0.01-0.52,0.3-1.36,0.66-1.48c0.41-0.14,1.15,0.23,1.55,0.6c1.63,1.49,3.16,3.09,4.78,4.59c0.36,0.33,1.01,0.66,1.4,0.55
			c0.34-0.1,0.67-0.79,0.73-1.26c0.34-2.39,0.57-4.8,0.91-7.2c0.07-0.48,0.43-0.92,0.66-1.37c0.46,0.3,1.05,0.5,1.36,0.91
			c1.46,1.87,2.82,3.82,4.28,5.7c0.25,0.32,0.84,0.65,1.16,0.56c0.44-0.12,0.98-0.57,1.12-0.99c0.69-2.09,1.22-4.24,1.89-6.34
			c0.18-0.57,0.68-1.04,1.03-1.55c0.46,0.41,1.06,0.74,1.34,1.25c0.98,1.81,1.79,3.7,2.78,5.5c0.33,0.6,0.98,1.03,1.48,1.53
			c0.46-0.48,1.06-0.89,1.37-1.46c0.95-1.76,1.74-3.6,2.69-5.36c0.28-0.51,0.88-0.84,1.34-1.26c0.32,0.45,0.73,0.86,0.94,1.36
			C211.79,51.23,212.14,52.34,212.57,53.56z M186.15,159.21c0.57,0.2,1.13,0.41,1.7,0.6c5.14,1.76,10.45,2.68,15.85,2.86
			c2.9,0.1,5.84-0.25,8.74-0.6c5.81-0.7,11.35-2.47,16.49-5.22c5.79-3.1,10.88-7.12,15.15-12.21c3.47-4.14,6.22-8.66,8.25-13.62
			c1.74-4.26,2.69-8.69,3.39-13.26c0.82-5.35,0.36-10.57-0.49-15.77c-0.92-5.68-2.9-11.1-5.84-16.06c-1.65-2.79-3.55-5.49-5.73-7.88
			c-2.47-2.71-5.23-5.23-8.14-7.46c-2.7-2.06-5.67-3.83-8.71-5.34c-4.41-2.18-9.15-3.39-14.05-4.16c-4.81-0.75-9.59-0.71-14.37-0.2
			c-5.45,0.58-10.72,2.03-15.64,4.49c-4.38,2.19-8.61,4.64-12.02,8.26c-2.18,2.32-4.53,4.5-6.56,6.95c-3.8,4.56-6.3,9.89-8,15.52
			c-1.03,3.4-1.91,6.98-2.04,10.5c-0.2,5.54-0.6,11.16,1.17,16.6c1.09,3.35,1.78,6.88,3.24,10.06c2.29,4.96,5.36,9.51,9.16,13.49
			C172.86,152.2,178.92,156.35,186.15,159.21z"/>
		<path class="st1" d="M186.05,159.14c-7.13-2.79-13.19-6.94-18.37-12.36c-3.8-3.98-6.87-8.53-9.16-13.49
			c-1.47-3.17-2.15-6.7-3.24-10.06c-1.77-5.44-1.37-11.06-1.17-16.6c0.13-3.53,1.01-7.1,2.04-10.5c1.7-5.63,4.21-10.95,8-15.52
			c2.03-2.44,4.38-4.63,6.56-6.95c3.41-3.62,7.64-6.08,12.02-8.26c4.92-2.46,10.19-3.91,15.64-4.49c4.78-0.51,9.56-0.55,14.37,0.2
			c4.89,0.76,9.63,1.98,14.05,4.16c3.04,1.5,6.01,3.28,8.71,5.34c2.92,2.23,5.67,4.75,8.14,7.46c2.18,2.39,4.08,5.09,5.73,7.88
			c2.94,4.96,4.92,10.38,5.84,16.06c0.85,5.2,1.31,10.42,0.49,15.77c-0.7,4.57-1.65,9.01-3.39,13.26
			c-2.03,4.96-4.77,9.48-8.25,13.62c-4.27,5.09-9.36,9.11-15.15,12.21c-5.14,2.75-10.67,4.52-16.49,5.22
			c-2.9,0.35-5.83,0.7-8.74,0.6c-5.4-0.18-10.71-1.1-15.85-2.86C187.28,159.62,186.72,159.41,186.05,159.14z"/>
	</g>
</g>
</svg>
